<svg xmlns="http://www.w3.org/2000/svg" xmlns:xlink="http://www.w3.org/1999/xlink" viewBox="0 0 106.125 122.125" fill="#fff" fill-rule="evenodd" stroke="#000" stroke-linecap="round" stroke-linejoin="round"><use xlink:href="#A" x="1.042" y="1.042"/><symbol id="A" overflow="visible"><g stroke="none" fill-rule="nonzero"><path d="M1.599 88.795s-11.683-28.042 30.375-25.704c0 0 9.346-42.062 67.765-56.083 0 0 11.683 56.083-49.071 79.448 0 0 0 18.694 18.694 23.367 2.567.642 6.3-.708 7.01 0 4.677 4.677-25.702 9.352-32.71 7.035v-14.021s-16.354 0-23.367-18.694c0 0-4.673-9.348-18.694 4.673z" fill="#a57939"/><path d="M36.651 48.817S36.651 7.008 50.672 0c0 0 11.683 9.346 9.346 23.367l-23.367 25.45z" fill="#6a462f"/><path d="M21.335 82.144s-8.66-5.031-19.479 6.652c0 0-13.525-27.417 32.458-26.562L21.335 82.142z"/><path d="M.316 75.754l8.217 5.069-6.931 5.638z" fill="#fcea2b"/></g><g fill="none" stroke-width="4.167"><path d="M57.683 16.359c0-9.346-7.01-14.021-7.01-14.021-14.021 9.346-14.021 37.388-16.354 51.408-.875 5.258-1.423 7.558-2.75 8.583-2.212 1.712-6.596-.115-18.279 2.321C-5.405 68.546 1.606 88.817 1.606 88.817c14.021-14.021 18.694-4.673 18.694-4.673 7.01 21.031 21.031 18.694 21.031 18.694 2.337 9.346 0 14.021 0 14.021 7.01 7.01 56.083-7.01 31.74-8.569s-22.4-21.827-22.4-21.827c8.625-4.792 15.854-9.76 21.906-14.765 0 0 1.458-3.929-3.212-15.612"/><path d="M31.974 63.094c2.337-16.354 28.042-37.388 28.042-37.388S85.724 7.013 102.099 7.013c0 0 0 35.05-21.031 58.417 0 0 0-14.021-4.673-18.694M29.203 98.582l-1.875 11.246s-7.038-2.362-9.346 0m9.342 0s4.673 0 4.673 2.338"/></g></symbol></svg>