<svg xmlns="http://www.w3.org/2000/svg" xmlns:xlink="http://www.w3.org/1999/xlink" viewBox="0 0 105.167 97.167" fill="#fff" fill-rule="evenodd" stroke="#000" stroke-linecap="round" stroke-linejoin="round"><use xlink:href="#A" x="2.083" y="2.083"/><symbol id="A" overflow="visible"><g stroke="none" fill-rule="nonzero"><use xlink:href="#C" fill="#3f3f3f"/><path d="M97.994 40.906s-7.292-.427-11.979-1.492-8.083-3.486-16.8-1-6.637 2.492-6.637 2.492l6.25 7.671"/></g><g fill="none" stroke-width="4.167"><use xlink:href="#C"/><path d="M97.994 40.243s-7.292-.348-11.979-1.215-8.083-2.84-16.8-.833-6.637 2.048-6.637 2.048l6.25 6.25"/></g></symbol><defs ><path id="C" d="M.077 92.327s-1.39-15.973 7.64-22.569c0 0-1.39-33.681 23.61-50.348 0 0 2.083-10.417-4.167-16.667s13.194-1.735 18.056 12.673c0 0 40.277-4.34 54.86 22.744 0 0 4.167 8.333-33.333 8.333 0 0-4.167 10.417-18.75 10.417 0 0-4.167 0 2.083-10.417 0 0-20.833-1.042-32.292 20.313 0 0 13.542 13.021 5.208 13.021s-10.417-2.083-10.417-2.083S10.494 88.16.077 92.327z"/></defs></svg>