<svg xmlns="http://www.w3.org/2000/svg" xmlns:xlink="http://www.w3.org/1999/xlink" viewBox="0 0 109.125 86.167" fill="#fff" fill-rule="evenodd" stroke="#000" stroke-linecap="round" stroke-linejoin="round"><use xlink:href="#A" x="1.042" y="2.083"/><symbol id="A" overflow="visible"><g stroke="none" fill-rule="nonzero"><path d="M62.923 11.484s6.504-18.75 23.848-8.333c0 0 17.886 1.563 18.698 7.031 0 0-16.531 3.385-20.867 11.719s6.504 14.583-11.11 32.552c0 0-8.4 9.115-21.408 9.115 0 0-45.833 6.25-52.083 0" fill="#6a462f"/><use xlink:href="#C" fill="#a57939"/></g><path d="M47.135 81.536l9.115-3.385" fill="none" stroke-width="4.167" stroke-miterlimit="10"/><path d="M68.438 27.047c-1.55-.298-1.948 1.063-1.948 1.063-1.425 4.513-6.387 14.869-21.85 21.006l.013.017s-1.588.423-.923 2.142c.575 1.483 2.042 1.156 2.431 1.042 17.298-6.931 22.463-18.979 23.85-23.625.125-.41-.031-1.35-1.573-1.646z" stroke="none" fill="#000" fill-rule="nonzero"/><g fill="none" stroke-width="4.167"><path d="M45.052 50.807S62.5 46.901 68.75 26.067m-4.167-14.583s6.25-18.75 22.917-8.333c0 0 17.188 1.563 17.969 7.031 0 0-15.885 3.385-20.052 11.719s6.25 14.583-10.677 32.552c0 0-8.073 9.115-20.573 9.115l-2.083 4.167 4.167 10.417 12.5 2.083"/><use xlink:href="#C"/></g></symbol><defs ><path id="C" d="M.26 63.307s51.823-47.656 68.49-45.573 4.167 27.604-11.458 36.719S.26 63.307.26 63.307z"/></defs></svg>