<svg xmlns="http://www.w3.org/2000/svg" xmlns:xlink="http://www.w3.org/1999/xlink" viewBox="0 0 136.125 86.125" fill="#fff" fill-rule="evenodd" stroke="#000" stroke-linecap="round" stroke-linejoin="round"><use xlink:href="#A" x="2.083" y="1.042"/><symbol id="A" overflow="visible"><g stroke="none" fill-rule="nonzero"><path d="M88.213 58.736l5.537 5.619 11.667 2.594-2.708 8.454 1.563 6.704 4.6-1.488 5.469-10.375 2.517-10.737-7.054-10.687c-3.75-2.923-4.735-7.371-7.292-12.046L88.188 58.736zm-33.971-1.198l-3.792 5.917-3.298 15.696-3.333 3.654-6.125-2.267L37 69.6l2.083-13.64c1.042-4.242 11.11-4.929 11.11-4.929l4.05 6.5z" fill="#e27022"/><path d="M95.6 27.281l-.092-.117.092.117zm1.987 2.563l-.592-.765.592.765zm-.592-.767l-1.396-1.8 1.396 1.8zM130.575 1.16L125.019 0l-8.958 3.244-1.521 9.179-.781 6.542-6.771 7.962-5.51 3.229-3.667.012-.244-.342h-6.875l-11.09-4.24-12.437-4.346-20.608 1.125-13.417 2.579-13.175-5.737-8.875-5.896-7.548 1.542 3.646 7.119L.275 32.598l1.958 8.827 10.625.246h4.325l6.85-.246-.833 5.417 2.292 5.704-2.292 4.131-7.708 6.146-1.012 8.527 5.829 6.875s8.204-.65 4.883-9.535l5.833-5.694 9.89-2.571 4.11-2.535 9.242 1.667h17.5l4.438 7.092-2.967 9.756.198 5.75 5.325-.562 6.142-8.187 4.035-5.354v-7.292l7.583-7.442 4.896-10.292s.042-.292.069-.783l.025.033s12.721-6.258 17.354-15.677c4.558-9.265-.525-16.927 9.246-17.317 2.821-.113 5.729-4.687 2.473-8.073z" fill="#f4aa41"/></g><path d="M15.736 40.746c-4.86 2.083-10.244 1.735-10.244 1.735-3.494.304-6.49-8.333-5.177-9.86l6.913-10.625-3.646-7.119s10.433-2.948 16.423 4.375c.717.875 1.654 1.548 2.667 2.056l.208.096c5.402 2.708 11.554 3.271 17.469 2.079 15.046-3.038 29.312-2.854 45.198 4.608s30.902-4.687 29.037-15.625c-1.652-9.681 7.423-15.798 14.063-10.417M23.2 68c1.25-4.596 17.708-7.6 17.708-7.6s6.725-2.5 2.971-9.383M27.909 35.538c-3.215 3.821-8.11 10.006-.917 19.079 0 0-14.077 5.944-12.513 16.735 0 0 .754 5.158 5.004 5.004m19.25-5.848c-2.408 15.114 4.971 12.615 6.285 11.792 2.392-1.494 3.85-20.529 8.233-23.567 3.317-2.3 17.015-.629 17.015-.629m-.388-5.721c.208 3.629 1.569 7.087 3.613 10.094 1.379 2.027 3.756 4.833 3.027 6.219-9.333 17.708 1.296 14.629 2.256 12.848 6.642-12.327 12.76-8.55 9.681-21.923 0 0 10.979-3.75 11.5-16.619m-9.854 18.271s4.931 6.673 16.162 5.611c0 0-6.929 14.087 0 15.875 3.994 1.029 9.838-23.25 9.838-23.25s-5.556-5.104-7.465-9.098" fill="none" stroke-width="4.167" stroke-miterlimit="10"/></symbol></svg>