<svg xmlns="http://www.w3.org/2000/svg" xmlns:xlink="http://www.w3.org/1999/xlink" viewBox="0 0 117.083 120.083" fill="#fff" fill-rule="evenodd" stroke="#000" stroke-linecap="round" stroke-linejoin="round"><use xlink:href="#A" x="1.042" y="1.042"/><symbol id="A" overflow="visible"><g stroke="none"><g fill="#a57939" fill-rule="nonzero"><path d="M26.042 17.536l-4.687 7.552-8.854 4.167-9.375 11.198L0 49.828l3.125 6.25 8.854.781 12.239-2.344s3.042.825 4.254 5.208c1.39 5.035-3.212 7.031-3.994 7.292s-8.333 0-8.333 0L4.427 68.057l-1.302 7.813 1.823 2.865s7.292 1.563 10.417-.781 10.417 1.823 10.417 1.823l10.202 1.354s-4.76 9.1-1.115 13.787-3.098 5.954-3.098 5.954l-4.954 4.604-1.427 3.471 2.215 4.167 7.031.521 3.258 2.39 2.604.917 2.996.6 15.625-3.906 13.021-.521 6.51-3.385 2.604-5.729 4.688-16.667V70.144l-2.083-13.542-4.948-8.854-9.115-8.333-14.583-5.469-11.719-1.562c-1.042-.521-8.333-3.646-8.333-3.646l-2.604-7.812-3.646-4.687h-2.865v1.302z"/><path d="M59.2 35.419v-6.598l5.556-16.494c.173-.521 7.64-9.375 7.64-9.375L80.556 0l13.021.694 14.756 12.673 5.181 5.86c4.86 22.208-28.444 21.819-23.896 3.375-5.442 13.51 2.938 21.079 12.987 28.438l8.854 11.285.348 9.896-3.298 12.152s-7.119 8.16-9.375 9.027l-15.452 5.902 2.604-17.187.173-13.021-2.777-9.548-2.256-7.639-6.598-8.16-9.027-6.077-6.598-2.256z"/></g><path d="M51.832 34.45c-1.137.792-4.087 7.827-.529 9.431s9.85 5.1 9.85 5.1l9.35 10.458 3.671 9.962v16.402l-2.125 9.594s3.194 10.85 10.537 3.906 1.094 0 1.094 0l3.646-20.448-3.646-19.313-3.708-9.896L69.79 39.404l-17.958-4.958z" fill="#d0cfce" fill-rule="nonzero"/></g><path d="M23.566 53.8c-6.285 4.646-13.677 4.152-18.396 3.125-3.327-.739-5.446-4.1-4.656-7.417.596-2.5 1.798-5.969 4.088-10.725 6.496-13.485 17.583-13.517 17.583-13.517.848-2.158 3.888-7.708 6.265-8.74 0 0 14.854 15.354 2.142 23.633M5.4 76.925c-3.76-1.558-5.923-13.667 14.046-9.375 1.208.258 3.333.492 4.525.175 3.739-.994 11.76-1.346 11.76-9.55m16.413 1.027c.298.196 9.548 20.571-6.494 21.754s-28.742-4.233-28.742-4.233m26.917 12.304s-2.344 8.271 3.958 14.569l-5.798 1.667a10.04 10.04 0 0 0-6.271 5.35c-.474.998-.507 2.148-.092 3.172s1.242 1.825 2.277 2.21c3.35 1.242 8.983 1.827 16.917-2.292 0 0 19.473 5.323 25.875-8.125 0 0 11.49-19.194 3.615-46.363-5.575-19.233-22.083-23.596-31.283-24.504-3.388-.333-6.617-1.458-9.721-2.833-3.858-1.735-7.317-2.092-7.317-2.092m25.531-.758S61.725 1.708 82.612.131 111.5 20.167 111.5 20.167m-14.042.529c-4.556-2.604-15.494 3.933-7.421 16.927s27.823 22.021 21.467 39.125c-7.5 20.131-27.325 22.333-27.325 22.333M52.012 44.027s32.179 9.59 20.575 49.433M35.983 81.106s-4.371 9.819 1.01 19.194c0 0-14.41 1.563-9.865 10.925" fill="none" stroke-width="4.167" stroke-miterlimit="10"/></symbol></svg>