<svg xmlns="http://www.w3.org/2000/svg" xmlns:xlink="http://www.w3.org/1999/xlink" viewBox="0 0 133.125 124.125" fill="#fff" fill-rule="evenodd" stroke="#000" stroke-linecap="round" stroke-linejoin="round"><use xlink:href="#A" x="1.042" y="1.042"/><symbol id="A" overflow="visible"><g stroke="none" fill-rule="nonzero"><path d="M20.744 6.25v6.25l12.5 8.333L31.161 37.5l4.167 16.667-2.083 16.667L37.411 87.5l6.25 4.167 2.083 14.583s0 8.333 6.25 10.417l14.583 4.167 12.5-4.167s8.333-8.333 8.333-12.5V93.75l6.25-14.583 2.083-27.083 2.083-12.5-4.167-18.75 8.333-2.083 6.25-8.333v-6.25l-18.75 4.167-10.417-4.167L62.411 0l-12.5 4.167-8.333 4.167L20.744 6.25z"/><path d="M129.077 19.688l-11.625.792-15.275 5.221-6.01 2.708s-21.594 3.042-21.25 15.196c0 0-.969 7.5 4.063 12.806 3.917 4.131 6.25 9.683 5.25 15.292-.625 3.702-2.604 7.354-7.229 9.571l7.5 2.625 3.233 9.244s4.583-1.448 7.342-8.542l1.91-12.717c-.129-.389-.781-12.629-.781-12.629l-.65-4.296 3.133-2.396 12.75-3.242 9.994-6.879 6.09-10.413 1.556-12.342zm-129.062 0l11.625.792L26.915 25.7l6.01 2.708s21.594 3.042 21.25 15.196c0 0 .969 7.5-4.062 12.806-3.917 4.131-6.25 9.683-5.25 15.292.625 3.702 2.608 7.354 7.229 9.571l-7.5 2.625-3.233 9.244s-4.583-1.448-7.342-8.542l-1.91-12.717.781-12.629.652-4.296-3.133-2.396-12.75-3.242-9.994-6.879-6.09-10.413L0 19.742z" fill="#a57939"/><path d="M47.66 79.867l-4.91 14.756 1.244 10.938 3.931.36 17.446-1.381 18.75 2.067 3.333-3.235.563-11.833-4.925-9.615-21.194-.673z" fill="#f4aa41"/><path d="M43.998 50.125s-6.348-.458-7.975-2.083a4.17 4.17 0 0 1 .051-5.841 4.17 4.17 0 0 1 5.841-.051c1.625 1.625 2.083 7.975 2.083 7.975z" fill="#000"/></g><g fill="none" stroke-width="4.167"><path d="M30.369 40.073l4.246-19.267s-16-1.306-13.552-15.51c0 0 20.736 6.858 26.615.979 0 0 12.994-13.883 33.742-.09 6.923 4.604 26.615-.979 26.615-.979 2.45 14.204-13.552 15.511-13.552 15.511l4.246 19.267M48.833 81.25h32.765a1.93 1.93 0 0 1 1.475.667c1.764 2.083 6.55 9.056 4.362 21.452-.383 2.167-2.427 3.629-4.592 3.229-7.242-1.333-23.592-3.729-34.917-.679a3.9 3.9 0 0 1-3.2-.539 3.89 3.89 0 0 1-1.681-2.775c-.629-5.229-.658-13.808 4.167-20.558.365-.508.973-.798 1.598-.798z"/><path d="M51.717 90.16s-1.431 5.948 6.571 6.096m-8.11 17.215s13.225 16.492 28.738.654M25.99 27.404c-6.383-4.079-15.375-9.556-25.906-6.965 0 0-3.125 29.229 32 32.329l2.527 1.833s-4.792 18.579 2.629 33.546"/></g><path d="M85.092 50.03s6.348-.458 7.975-2.083a4.17 4.17 0 0 0-.051-5.841 4.17 4.17 0 0 0-5.841-.051c-1.625 1.625-2.083 7.975-2.083 7.975z" stroke="none" fill="#000" fill-rule="nonzero"/><path d="M79.456 90.071s1.431 5.948-6.571 6.096M103.606 27c6.348-3.933 15.142-9.171 25.4-6.667 0 0 3.125 29.229-32 32.329l-2.527 1.833s5.287 16.619-2.112 31.583" fill="none" stroke-miterlimit="10" stroke-width="4.167"/></symbol></svg>