<svg xmlns="http://www.w3.org/2000/svg" xmlns:xlink="http://www.w3.org/1999/xlink" viewBox="0 0 114.083 135.125" fill="#fff" fill-rule="evenodd" stroke="#000" stroke-linecap="round" stroke-linejoin="round"><use xlink:href="#A" x="1.042" y="2.083"/><symbol id="A" overflow="visible"><g stroke="none" fill-rule="nonzero"><path d="M99.348 54.454l2.563 20.66s-2.083 14.063 9.723 7.985l-3.473-6.598 2.256-9.548-1.91-8.681-9.158-3.819z"/><path d="M21.615 32.188L0 43.907l1.302 4.558s13.802.652 15.104 3.517-4.948 28.777 22.656 38.413l7.031 31.771s-3.646 9.504-3.254 9.244 5.99-.129 5.99-.129l3.906-11.588-.521-16.275L51.173 93l8.983.652L75.26 91.44l8.985-.39 5.729 9.115-6.119 22.527-5.602 8.583h8.073l11.458-20.962 2.604-7.812-3.646-14.973 6.902-20.442s.652-7.421-4.296-12.631-27.604 1.042-27.604 1.042l-24.088-2.994-8.983.652-2.994-5.208-1.431-5.858s6.25-.26 6.642-6.64c0 0-7.031-5.729-13.542-.39 0 0-5.208-4.296-5.729-2.865z" fill="#a57939"/><path d="M28.296 84.662l2.431 11.979 3.646 23.09-3.994 11.285h6.077l5.381-11.806-.173-18.056-2.604-10.765z" fill="#6a462f"/></g><g fill="none" stroke-width="4.167"><path d="M43.4 129.317l2.458-7.194-7.146-32.208c-25.677-8.035-21.656-36.848-21.656-36.848-.4-3.677-6.925-3.785-6.925-3.785l-5.521.444a3.69 3.69 0 0 1-3.775-2.448l-.417-1.24a3.34 3.34 0 0 1 1.656-4.104l18.792-9.375s4.619-1.783 6.6 3.167c0 0 2.329-5.619 13.492-1.154 0 0-.896 8.483-10.717 8.483m23.275 29.45l1.117 11.833s-6.25 6.292-4.465 18.883m-17.34-6.875l2.008 23.917-3.796 8.708m3.221-79.562s1.396 6.723 10.16 3.885c1.99-.625 4.133-.617 6.167-.133 5.112 1.217 20.958 3 28.902 1.631a17.5 17.5 0 0 0 3.41-.965c3.25-1.25 13.994-4.392 24.39 4.808 4.173 3.694 3.725 9.896 2.146 15.058-.021.071-1.808 5.625 1.133 7.86M83.955 67.608L82.169 86.76l8.483 13.888-7.048 22.167-4.896 6.521m22.931-61.727s2.025 10.406-4.329 20.271c0 0 .223 8.083 2.902 12.996l-4.242 8.656M22.638 31.89s1.785-8.596 15.74-5.135c0 0 12.5 1.004 16.633-10.717S50.469 0 50.469 0m13.1 6.702s5.963 4.029.625 10.135c-5.208 5.938-10.104 4.215-10.104 4.215"/><path d="M14.934 12.671s-2.531 10.408 2.679 14.51 5 5.339 5 5.339m20.094-20.633s-2.742 3.542.271 8.708c0 0 1.329 3.369-1.369 5.979m-14.194.004s-4.021-5 1.452-10.448m31.346 75.486c9.902 1.042 18.513 1.104 24.217-1.171"/></g></symbol></svg>