<svg xmlns="http://www.w3.org/2000/svg" xmlns:xlink="http://www.w3.org/1999/xlink" viewBox="0 0 135.167 111.167" fill="#fff" fill-rule="evenodd" stroke="#000" stroke-linecap="round" stroke-linejoin="round"><use xlink:href="#A" x="2.083" y="2.083"/><symbol id="A" overflow="visible"><use xlink:href="#C" fill="#a57939" stroke="none" fill-rule="nonzero"/><use xlink:href="#C" fill="none" stroke-width="4.167" stroke-linejoin="miter" stroke-linecap="butt"/></symbol><defs ><path id="C" d="M0 87.659s31.25-6.25 35.417-20.833 30.556-23.265 43.402-17.881c0 0 13.194 1.215 17.188-15.452S104.167-1.924 118.75.159s12.848 13.194 8.506 14.931-10.59 1.735-12.673 4.86-4.514 33.681-13.715 41.319c0 0-10.244 13.542-9.723 19.965s3.819 25.696-3.646 25.175c-7.562-.527-6.25-14.583-6.25-16.667s-16.667-6.25-22.917-2.083-4.514 16.667-9.548 17.708-10.244.694-11.806-1.215 1.25-13.933-1.042-18.056"/></defs></svg>