<svg xmlns="http://www.w3.org/2000/svg" xmlns:xlink="http://www.w3.org/1999/xlink" viewBox="0 0 130.167 91.125" fill="#fff" fill-rule="evenodd" stroke="#000" stroke-linecap="round" stroke-linejoin="round"><use xlink:href="#A" x="2.083" y="2.083"/><symbol id="A" overflow="visible"><g stroke="none" fill-rule="nonzero"><path d="M32.398 2.865l-7.504 3.292-8.467 7.646-.885 9.048-5.192 15.029-.885 18.958 4.004 11.342 10.292 7.083 9.446-2.25 3.008-5.908-1.242-6.208s-5.417-4.333-7.187 2.361c-.496 1.875-2.371 3.125-4.204 2.569-.737-.229-1.542-.708-2.362-1.562-6.035-6.267 2.8-12.756 2.8-12.756l3.417-4.715s8.417 4.244 13.717 1.563v6.073l2.813 15.633.729 5.458-3.542 6.688 1.087 2.412h14.258l1.792-3.596s-.854-18.671 1.292-22.979 0 0 0 0l8.256 3.235 13.813-1.573 10.448-1.979c6.858.975 11.037 3.694 11.229 9.006l.758 8.798-3.513 6.863.054 3.283 11.619.417 4.735-3.492-.208-32.34.208-14.542-1.104-11.213-6.308-10.09L88.396 2.617 74.84 7.846l-12.983.052-7.948-4.619L44.896.225l-8.923 2.229-3.577.408z" fill="#9b9b9a"/><path d="M88.648 56.858l2.256 8.16-.946 8.854-3.542 9.027 7.698 4.6s7.465.313 10.765-1.404l-4.302-3.702 4.302-6.525-.694-9.287-2.431-5.817-6.104-3.212-7-.694z" fill="#3f3f3f"/></g><g fill="none" stroke-width="4.167"><path d="M33.506 62.17c2.675 4.792 1.396 8.681-.64 10.612-2.204 2.092-6.508 3.025-9.446 2.25-26.344-6.944-8.223-52.41-8.223-52.41C16.479 3.398 32.041 4.131 32.041 4.131S46.416-5.39 55 4.477c2.563 2.954 3.7 6.875 3.583 10.783-.181 6.098 6.004 14.496-3.444 21.579-3.646 2.735-1.973 10.642-9.375 11.631 0 0-10.608 1.083-10.792-15.579m7.104 16.423s-.625 5.108 2.281 25.979l-3.125 5.412c-.496.85-.523 1.895-.071 2.769s1.319 1.457 2.3 1.543c2.552.213 8.229.371 10.958.027 2.083-.265 3.804-2.146 3.548-4.254-1.781-14.679 1.292-22.979 1.292-22.979 9.708 7.444 23.381.408 31.071-.323 1.537-.146 4.25.348 5.527.715 4.819 1.383 8.027 4.423 7.906 17.917l-3.237 5.34c-1.042 1.89.327 4.244 2.427 4.694 2.292.489 8.667-.108 10.563-.525 3.604-.796 3.438-4.583 3.66-8.285.473-7.854-.204-18.779-.635-24.467-.161-2.065-.089-4.142.213-6.192.771-5.208 6.667-26.142-17.021-40-13.696-8.029-27.485 8.838-42.969-1.146"/><path d="M27.098 39.652s.367 22.5-27.098 23.25m122.948-35.975c2.188 5.029 3.683 13.01 2.508 25.625m-36.204 6.925l.833 10.104a7.27 7.27 0 0 1-1.138 4.55l-1.84 2.837c-.446.688-.777 1.719-.967 2.85-.494 2.948 1.765 5.631 4.673 5.631h2.34"/></g></symbol></svg>