<svg xmlns="http://www.w3.org/2000/svg" xmlns:xlink="http://www.w3.org/1999/xlink" viewBox="0 0 135.167 98.083" fill="#fff" fill-rule="evenodd" stroke="#000" stroke-linecap="round" stroke-linejoin="round"><use xlink:href="#A" x="2.083" y="1.042"/><symbol id="A" overflow="visible"><g stroke="none" fill-rule="nonzero"><path d="M13.151 2.721L6.593 8.45.87 16.642v5.221l5.51 2.265 10.077-1.515 4.042 6.537 1.271 5.86s2.271 4.404 7.375 7.283c0 0-3.492 4.365 2.89 8.438l1.346 7.675 8.558 1.465-3.071 30.09 5.146 5.821 8.579-1.51h3.615l2.004-3.333-.704-28.987 8.246 1.188 10.854.546 8.15-1.735 6.569.235 13.396-2.604 6.423 10.417.027 21.042 2.638 4.479 5.423-3.3 2.708-21.45-2.625-7.083-1.904-11.76 3.7-8.5-.965-7.229 1.792-8.821-4.888-4.342-3.663-5.812-6.59-1.048-6.937-3.646-9.635 2.171-6.162-2.171-7.465.952s-7.51-1.458-11.785 0c0 0-8.094-3.99-11.654-1.125 0 0-12.6.75-14.3 2.458 0 0-2.363-3.254-6.965-2.187l1.471-7.821S29.13-2.75 21.297 1.087c-5.16 2.527-8.156 1.631-8.156 1.631z" fill="#d0cfce"/><path d="M11.233 4.933s9.125 1 12.771 7.423l5.417 1.125 3.958-4.275-1.91-8.673h-7.812l-7.917 1.879-4.483 2.5zm19.192 8.569s2.771 14.177-9.119 18.158l1 7.279 5.625 2.261-.8 5.725 4.904 3.825v5.725s14.625 2.344 15.631 9.64c0 0 7.244-7.675 9.848-4.167l6.25 1.735 6.34-1.735 6.508 1.735h7.292l11.458-1.735s8.371 1.5 9.367-2.371c0 0 7.66-7.708 13.208-1.175l-.517-6.458 3.7-8.5-.965-7.229 1.848-5.785-5.562-6.317-3.042-6.875-6.59-1.048-6.937-3.646-8.506 1.735-7.292-1.735-5.027 1.619-5.91-1.619-8.333.952-5.404-2.5-6.25 1.354-7.64-2.256-7.64 3.381s-1.562-3.911-7.465 0z"/></g><path d="M38.868 14.814s7.625-7.202 12.902-1.804c0 0 9.048-3.865 13.542.91 0 0 7.985-3.7 12.673.869 0 0 7.292-5.292 13.369.521 0 0 8.854-5.208 15.452.869 0 0 9.548-2.083 9.633 7.921 0 0 7.813 4.417 3.713 12.1 0 0 3.667 8.277-2.735 15.729 0 0-.158 9.952 3.508 14.673.908 1.167 1.208 2.7 1.042 4.167l-2.708 21.452c-.256 2.037-1.99 3.542-4.042 3.542a4.09 4.09 0 0 1-4.021-4.746l-.029-21.042s-3.125-6.888-6.423-10.417c0 0-3.719-1.167-7.042-5.319m-41.071-3.612c2.083 3.819 1.583 13.035 1.583 13.035v27.277c-.003 2.101-1.706 3.803-3.806 3.806-1.945-.003-3.576-1.469-3.785-3.402l-1.785-16.735-1.173-8.513c-3.321-7.058-9.573-7.473-9.573-7.473-7.229-.417-6.056-7.89-6.056-7.89-6.056-1.66-4.104-9.55-4.104-9.55-7.927-1.396-6.542-10.594-6.542-10.594l-4.931-7.979c-2.015-.275-4.073-.104-5.931.723-1.025.458-2.402.823-4.167.792-2.66-.048-4.277-.917-5.26-1.958-1.413-1.496-1.429-3.842-.25-5.527l5.723-8.192 5.277-4c2.354-1.784 5.227-2.75 8.181-2.75h1.244s11.692-4.708 11.589 4.792c-.104 9.879-7.421 6.75-7.421 6.75m38.958 48.708s1.91 1.712 6.146-.204c.417.021 9.729 4.569 13.285-.333 0 0 4.688 3.654 9.792-.704m-52.235 1.242c-.179 1.7 1.11 10.49-1.5 26.904-.404 2.538 1.535 4.854 4.104 4.854m81.694-69.61c.781.683 8.208-4.508 2.735 36.392" fill="none" stroke-width="4.167" stroke-miterlimit="10"/></symbol></svg>