<svg xmlns="http://www.w3.org/2000/svg" xmlns:xlink="http://www.w3.org/1999/xlink" viewBox="0 0 104.167 108.167" fill="#fff" fill-rule="evenodd" stroke="#000" stroke-linecap="round" stroke-linejoin="round"><use xlink:href="#A" x="2.083" y="2.083"/><symbol id="A" overflow="visible"><path d="M97.611 55.443c-1.367-.427-2.954-1.006-4.698-1.771-9.888-5.267-16.375-14.821-22.385-18.646-9.167-6.042-24.167-7.917-33.542-.625-4.375 3.333-6.25 7.917-7.292 10.833-1.042.417-2.5.625-3.75-.208-1.042-.625-2.292-2.5-1.667-8.75 1.042-10.625 4.792-12.292 4.167-19.167-.625-5-2.917-8.333-4.167-10-2.083-2.708-5.208-7.292-9.792-6.875-3.542.208-5.833 3.125-6.458 4.167-3.75 0-6.667 2.292-7.708 5.208-1.458 4.375 2.5 8.958 3.542 8.75.625-.208.208-2.083 1.25-4.792.833-1.875 2.292-1.667 3.333-2.5 2.083 0 3.75 1.667 5.833 1.667 1.25 0 3.958-1.458 3.958-1.458 1.667 1.042 2.083 2.292 2.708 5 .625 3.333.208 5.208-1.25 8.125-1.042 2.5-6.25 13.542-3.75 20.417.625 2.083 2.917 6.042 11.667 8.542 1.042 1.458 3.125 3.958 6.458 5.625 5 2.708 9.583 2.292 11.458 2.083 2.5 2.5 3.333 2.083 5.833 4.583 31.469 5.075 29.115-4.092 44.975-9.771l1.275-.437z" fill="#ffa7c0" stroke="none" fill-rule="nonzero"/><g fill="none" stroke-width="4.167"><path d="M57.819 68.36l8.125 19.792-1.667 15"/><path d="M58.236 68.36c4.792 5.625 18.333 16.667 18.333 16.667l-34.167-1.042-4.375 4.375M18.236 13.152s-1.25 1.667-3.958 1.458c-2.083-.208-3.125-2.917-5.208-2.917-1.667-.208-4.583 6.458-5.208 6.458-1.042.208-5-4.375-3.542-8.75 1.042-2.917 3.958-5.208 7.708-5.208.625-1.042 2.917-3.958 6.458-4.167 4.583-.417 7.708 4.167 9.792 6.875 1.25 1.667 3.542 5 4.167 10 .625 6.875-3.125 8.542-4.167 19.167-.625 6.25.625 8.125 1.667 8.75 1.25.833 2.708.625 3.75.208 1.042-2.917 2.917-7.5 7.292-10.833 9.375-7.292 24.375-5.417 33.542.625 6.875 4.375 6.667 8.542 16.25 15 5.208 3.542 9.792 5.417 13.125 6.458-17.292 5.625-25.625 11.458-35 11.875-5.208.208-16.875-4.583-19.167-7.083M27.611 53.36c1.042 1.458 3.125 3.958 6.458 5.625 5 2.708 9.583 2.292 11.458 2.083M19.694 24.402c-1.042 2.5-6.25 13.542-3.75 20.417.625 2.083 2.917 6.042 11.667 8.542"/></g></symbol></svg>