<svg xmlns="http://www.w3.org/2000/svg" xmlns:xlink="http://www.w3.org/1999/xlink" viewBox="0 0 68.125 109.167" fill="#fff" fill-rule="evenodd" stroke="#000" stroke-linecap="round" stroke-linejoin="round"><use xlink:href="#A" x="2.083" y="2.083"/><symbol id="A" overflow="visible"><g fill="#fcea2b" fill-rule="nonzero"><path d="M.697 68.75c0-12.696 13.938-22.917 31.25-22.917s31.25 10.221 31.25 22.917-13.937 22.917-31.25 22.917S.697 81.446.697 68.75z" stroke="#fcea2b" stroke-width="3.75" stroke-linejoin="miter"/><path d="M44.968 54.167c4.167 18.75 18.75 18.75 18.75 18.75C67.884 60.417 51.218 50 51.218 50c14.583-12.5 2.083-20.833 2.083-20.833 0-20.833-21.615-22.917-21.615-22.917-21.615 4.167-20.052 22.917-20.052 22.917-12.5 8.333 1.302 20.313 1.302 20.313S-2.949 58.333 1.218 72.917c0 0 16.667 0 16.667-18.75" stroke="none"/></g><path d="M33.242 34.59s12.344-.604 0 10.9c0 0-12.344-10.9 0-10.9z" fill="#f1b31c" stroke="none" fill-rule="nonzero"/><g fill="none" stroke-width="4.167"><path d="M4.863 81.25s9.994 10.469 28.083 10.442C50.696 91.667 59.03 81.25 59.03 81.25M26.998 7.292L21.79 3.385m8.333 2.604L28.04 1.563m6.25 5.208L34.551 0M22.25 91.104l-2.021 9.417-6.513 3.646"/><path d="M26.217 102.083L19.967 100M40.6 91.104l2.021 9.417 6.512 3.646"/><path d="M36.634 102.083l6.25-2.083"/></g><g fill-rule="nonzero" stroke="none" fill="#000"><use xlink:href="#C"/><use xlink:href="#C" x="16.667"/></g><path d="M32.722 34.59s12.319-.604 0 10.9c0 0-12.319-10.9 0-10.9zm11.725 19.577c4.167 18.75 18.75 18.75 18.75 18.75C67.363 60.417 50.697 50 50.697 50 65.28 37.5 52.78 29.167 52.78 29.167 52.78 8.333 31.165 6.25 31.165 6.25 9.551 10.417 11.113 29.167 11.113 29.167-1.387 37.5 12.415 49.48 12.415 49.48S-3.47 58.333.697 72.917c0 0 16.667 0 16.667-18.75" fill="none" stroke-width="4.167"/></symbol><defs ><path id="C" d="M19.967 27.084a4.16 4.16 0 1 1 8.333 0 4.16 4.16 0 1 1-8.333 0z"/></defs></svg>