<svg xmlns="http://www.w3.org/2000/svg" xmlns:xlink="http://www.w3.org/1999/xlink" viewBox="0 0 100.125 126.083" fill="#fff" fill-rule="evenodd" stroke="#000" stroke-linecap="round" stroke-linejoin="round"><use xlink:href="#A" x="2.083" y="1.042"/><symbol id="A" overflow="visible"><path d="M14.317.188l.694 7.985-6.25 2.344-5.99 5.99-1.562 4.427 13.542-2.083s9.635 27.344 25.26 33.854c0 0-3.385 13.281 3.385 18.49l1.563 23.698-5.99 21.875-4.167 6.683 4.973.063c1.297.016 2.528-.573 3.329-1.594l2.573-3.279c.384-.49.654-1.059.79-1.667l4.646-20.854c.066-.298.1-.602.1-.906V72.496l3.125 3.386 7.292 19.271 3.646 21.615-2.777 6.598 4.004-.217c1.495-.081 2.832-.958 3.502-2.298l1.658-3.317c.418-.835.543-1.785.356-2.7l-4.108-20.058c-.02-.097-.042-.192-.069-.287l-5.429-19.39 6.51-1.823 6.25-2.604s7.552 15.365 13.542 16.406l2.083 28.125-2.083 8.073 2.367-.075c1.841-.059 3.425-1.319 3.896-3.1l1.013-3.833a4.17 4.17 0 0 0 .119-1.458l-2.658-27.989c-.033-.348-.11-.687-.229-1.017l-2.167-6.017-3.385-17.708-2.344-7.552-7.552-6.51-14.583-1.042-12.24-8.073s-17.015-1.65-28.994-28.212c0 0-.869-12.327-7.64-10.504z" fill="#f4aa41" stroke="none" fill-rule="nonzero"/><path d="M35.142 121.32l4.037-4.817 5.729-21.223-1.302-23.958c-7.292-8.333-2.988-18.048-2.988-18.048-20.573-10.937-25.137-34.167-25.137-34.167L2.067 21.153c-.833-.007-1.581-.508-1.904-1.276s-.157-1.654.421-2.253l5.785-4.792 2.475-3.515 5.469-1.302-.129-5.99M50.121 67.13s-.26 6.25 4.948 8.204l6.902 19.662 3.646 21.225-2.717 5.098m.138-47.787h6.737s6.381-1.171 7.031-8.202m-1.562 4.521s1.954 9.938 13.281 17.096l1.694 28.75-1.042 5.625m4.973-39.194c-5.354-3.802-6.529-10.871-6.708-15.198-.125-2.958-.579-5.879-1.417-8.717l-.208-.694c-3.95-11.25-18.05-8.75-25-11.588-5.312-2.154-10.027-8.179-10.679-8.179-16.848 0-29.531-25.625-29.531-25.625" fill="none" stroke-width="4.167" stroke-miterlimit="10"/></symbol></svg>