<svg xmlns="http://www.w3.org/2000/svg" xmlns:xlink="http://www.w3.org/1999/xlink" viewBox="0 0 126.125 110.125" fill="#fff" fill-rule="evenodd" stroke="#000" stroke-linecap="round" stroke-linejoin="round"><use xlink:href="#A" x="2.083" y="2.083"/><symbol id="A" overflow="visible"><g stroke="none" fill-rule="nonzero"><path d="M17.412 7.242S9.025 2.726 6.704 6.367l3.348 5.254-8.381 8.275-1.533 4.754 2.033 3.719 5.971-.367 2.313 2.504-1.183 9.708s9.571.521 5.667-13.854h4.65l.408 4.479 1.337 7.196s1.858 8.096 3.225 7.908 6.525 5 6.525 5l1.425 8.288 6.583 7.167s7.158 24.283 5.139 30.346-1.577 7.025-1.577 7.025l5.354 1.417 4.5-9.256-1.875-31.033s14.479 12.41 31.763 2.719c0 0 1.108 11.265 5.029 13.221l-2.396 14.317-4.167 7.3 2.908 2.056 3.775-.729 6.313-12.573 2.3-22.84 2.454-5.369 11.198-14.902s.563-5.367-2.729-8.421-13.717-8.033-13.717-8.033l-26.396-1.323-23.698 3.125L29.989 12.09l-5.483-4.427s-5.825-1.242-7.137-.425z" fill="#a57939"/><g fill="#6a462f"><path d="M109.85 48.096l-4.817 21.542-1.45 7.958 2.39 4.158-8.854 24.35s-7.973 1.098-9.167-1.59l6.471-9.737.952-11.587.912-16.015 2.344-4.171 11.198-14.902zM16.752 10.138l6.973-8.256L34.658.773l8.917 7.804S29.512-.537 24.55 11.573l-7.798-1.431zM41.36 73.942l9.635 1.433 1.694 17.579-4.158 11.152H41.36l3.646-9.85zm54.037 9.244l-8.202 1.042-3.092 12.592-3.202 5.638.862 1.667 4.91 1.088 5.729-9.431z"/><path d="M121.7 27.934s4.079 21.548-12.11 21.277c0 0-.117-6.473-2.467-9.535l5.142-5.344 3.875-4.84c.229-.146 5.556-1.562 5.556-1.562z"/></g></g><g fill="none" stroke-width="4.167"><path d="M9.177 38.038c4.535-8.604-1.721-10.323-1.721-10.323-3.598 1.721-5.788-.625-5.788-.625-3.754-3.598 0-7.196 0-7.196 8.446-5.944 8.381-8.275 8.381-8.275L6.452 5.973s5.073-4.844 10.233 2.196c0 0 12.354-17.517 25.965-1.25M15.435 26.34s8.131.908 8.288-7.85"/><path d="M24.548 9.596s4.775.65 8.073 8.073c1.667 3.7 9.2 15.625 10.027 16.104 0 0 53.179-11.708 63.658 5.833 0 0 3.598 1.096 5.788-4.848s7.508-6.725 7.508-6.725M83.027 67.292c-18.613 10.167-32.404-2.819-32.404-2.819l1.008 18.533 1.042 12.546-3.483 7.708c-.337.747-1.08 1.227-1.9 1.227h-3.05c-.716 0-1.382-.368-1.763-.975s-.424-1.365-.114-2.011l2.423-6.223s-.104-3.617-1.042-11.281-4.848-18.125-4.848-18.125c-9.385-5.319-7.821-14.933-7.821-14.933C19.187 42.294 20 25.281 20 25.281m67.771 29.104s-10.537 13.438-.333 26.458c0 0 .212 11.283-3.775 16.798l-2.417 3.642c-.423.64-.461 1.46-.098 2.136s1.068 1.097 1.836 1.097h3.01a2.07 2.07 0 0 0 1.583-.729c1.908-2.229 7.279-9.479 7.279-20.469 0-10.917 2.177-18.842 2.177-18.842 10.558-9.267 10.952-16.375 10.952-16.375m-4.875 21.536s-2.219 6.733 2.864 11.113l-8.854 23.35"/></g></symbol></svg>