<svg xmlns="http://www.w3.org/2000/svg" xmlns:xlink="http://www.w3.org/1999/xlink" viewBox="0 0 128.167 108.125" fill="#fff" fill-rule="evenodd" stroke="#000" stroke-linecap="round" stroke-linejoin="round"><use xlink:href="#A" x="2.083" y="1.042"/><symbol id="A" overflow="visible"><g stroke="none" fill-rule="nonzero"><path d="M26.483 30.878S.442 37.649 8.254 72.024s33.333 28.125 33.333 28.125l9.896-2.604 19.792-.521s18.75 5.729 29.688-.521 16.146-25.521 16.146-25.521V56.399L111.9 44.94l-8.854-8.854-5.208-4.167s15.625-14.583 10.417-23.958-8.854-11.979-23.958.521l-2.604 2.083S61.379.67 41.067 10.045c0 0-10.417-16.667-24.479-6.25l-1.042 10.417s3.646 16.667 10.937 16.667z" fill="#f4aa41"/><path d="M6.342 62.995s19.965 21.527 46.181 4.515c0 0 2.431 9.202 7.985 7.813s10.244-7.119 10.244-7.119 31.423 11.631 47.744-5.381c0 0 1.129 19.444-17.275 34.723 0 0-16.927 6.077-29.948-.521l-20.485.521s-15.798 5.556-26.735-.348S3.913 70.462 6.344 62.995z"/><path d="M52.525 67.511l17.448-.173s-1.431 8.204-7.942 8.204-9.504-8.029-9.504-8.029z" fill="#ea5a47"/><path d="M37.371 44.94a6.24 6.24 0 1 1 12.5 0 6.24 6.24 0 1 1-12.5 0zm34.635 0c0-3.462 2.787-6.25 6.25-6.25s6.25 2.788 6.25 6.25-2.787 6.25-6.25 6.25-6.25-2.788-6.25-6.25z" fill="#000"/></g><path d="M53.127 69.253s1.563 5.381 7.813 6.077 8.333-6.077 8.333-6.077M60.94 75.33l.26 9.027c3.396 2.179 5.358 3.125 10.504 2.083m-20.66 0c4.079.694 6.077 0 10.156-2.083m11.729 11.806c11.244 5.779 20.177 3.587 26.567-.506m-90.842-24.9C.767 42.582 27.431 31.753 27.431 31.753c-6.25-2.083-17.36-19.964-8.16-28.298s21.875 6.944 21.875 6.944 20.508-8.681 41.677 0c0 0 12.673-15.277 21.875-6.944s-1.91 26.215-8.16 28.298c0 0 26.213 10.61 18.971 38.286m-89.792 26.39c6.287 3.588 14.792 5.167 25.325-.246m-9.896-27.429S5.729 74.31 0 93.232m42.708-16.729S17.183 81.122 12.5 104.17m70.323-35.417s35.417 5.556 41.146 24.479M81.26 76.503s24.465 7.875 30.208 27.667" fill="none" stroke-width="4.167" stroke-miterlimit="10"/></symbol></svg>