<svg xmlns="http://www.w3.org/2000/svg" xmlns:xlink="http://www.w3.org/1999/xlink" viewBox="0 0 133.083 78.083" fill="#fff" fill-rule="evenodd" stroke="#000" stroke-linecap="round" stroke-linejoin="round"><use xlink:href="#A" x="1.042" y="1.042"/><symbol id="A" overflow="visible"><g stroke="none" fill-rule="nonzero"><path d="M130.333 46.31c-.675-5.491-1.697-10.934-3.06-16.296-2.013-8.198-8.146-21.254-17.635-25.371C95.61-1.444 56.652 7.525 41.929 3.4c-2.5-.708-2.579-3.613-5.208-3.387-1.927.522-3.55 1.821-4.483 3.585-1.292 1.975-1.342 2.804-3.556 3.619-2.471.908-7.281.715-9.483 2.158-1.446.948-1.121 3.6-2.233 4.921-2.417 2.871-12.59 2.619-15.062 5.442-2.517 2.871-2.717 13.208.5 15.26 7.146 4.558 24.158-5.208 29.833-3.758 8.208 2.096 9.598 11.433 11.177 16.554 2.229 7.24 2.225 26.177 2.225 26.177s10.781 2.24 10.917.115c.417-6.771-4.281-26.765-2.171-25.733 23.183 11.329 41.104-1.542 49.4-2.717 7.152-1.013 5.667 28.333 5.667 28.333s11.9 2.408 12.046 0c.323-5.412-3.658-26.625-2.392-28.333 2.785-3.763 4.725.746 5.938 1.944 1 .988 5.346-.287 5.271-1.271z" fill="#9b9b9a"/><path d="M91.712 49.968c1.573-.062 6.254-2.888 7.09-1.511 2.281 3.75 2.808 22 1.969 26.146-.573 2.838-11.504-.338-11.504-.338s1.492-24.26 2.446-24.298zm-49.171-5.329c2.529.006 3.967 6.152 4.138 8.542.246 3.417-6.348 21.379-6.348 21.379h-9.483s10.979-29.906 11.694-29.904z" fill="#3f3f3f"/></g><path d="M129.05 45.35c-2.744-1.888 0-9.046-1.404-14.767-2.013-8.2-8.125-21.254-17.635-25.371C95.983-.875 57.024 8.094 42.302 3.969c-2.5-.708-2.579-3.613-5.208-3.387-1.927.522-3.55 1.821-4.483 3.585-1.292 1.975-1.342 2.804-3.556 3.619-2.471.908-7.281.717-9.483 2.158-1.446.946-1.121 3.6-2.233 4.921-2.417 2.871-12.59 2.619-15.062 5.442-2.517 2.871-2.717 13.208.5 15.26 7.146 4.558 24.158-5.208 29.833-3.76 8.208 2.096 9.598 11.433 11.177 16.554 2.229 7.24 2.225 26.177 2.225 26.177h8.515m.233-26.181c13.152 11.385 42.881.027 49.4-2.717 5.642-2.375 5.667 28.333 5.667 28.333h9.652M41.57 42.646c-1.073 10.725-10.254 31.327-10.254 31.327h7.112m52.325-23.712c2.598 6.012-.588 23.708-.588 23.708h8.636" fill="none" stroke-width="4.167"/></symbol></svg>