<?xml version="1.0" encoding="UTF-8" standalone="no"?>
<svg
   xmlns:dc="http://purl.org/dc/elements/1.1/"
   xmlns:cc="http://creativecommons.org/ns#"
   xmlns:rdf="http://www.w3.org/1999/02/22-rdf-syntax-ns#"
   xmlns:svg="http://www.w3.org/2000/svg"
   xmlns="http://www.w3.org/2000/svg"
   xmlns:xlink="http://www.w3.org/1999/xlink"
   style="fill:#ffffff;fill-rule:evenodd;stroke:#000000;stroke-linecap:round;stroke-linejoin:round"
   height="93.762413"
   width="140.27444"
   id="svg9"
   version="1.1"
   viewBox="0 0 140.27444 93.762413">
  <metadata
     id="metadata15">
    <rdf:RDF>
      <cc:Work
         rdf:about="">
        <dc:format>image/svg+xml</dc:format>
        <dc:type
           rdf:resource="http://purl.org/dc/dcmitype/StillImage" />
        <dc:title></dc:title>
      </cc:Work>
    </rdf:RDF>
  </metadata>
  <defs
     id="defs13" />
  <use
     height="100%"
     width="100%"
     id="use2"
     y="2.0829999"
     x="2.0829999"
     xlink:href="#A" />
  <symbol
     transform="translate(-0.36914275,41.487958)"
     style="overflow:visible"
     overflow="visible"
     id="A">
    <path
       style="fill:#b1cc33;fill-rule:nonzero;stroke:none"
       id="path4"
       d="m 75.962,33.574 c 0,0 16.423,-4.912 29.131,-1.787 12.708,3.125 29.375,-1.042 29.375,-1.042 0,0 -15.973,1.39 -31.944,-7.64 C 86.553,14.075 74.051,19.98 60.51,19.113 46.969,18.246 30.995,9.565 23.358,4.53 15.721,-0.505 10.685,0.015 10.685,0.015 c 0,0 -1.217,1.563 -5.384,3.646 -4.167,2.083 -10.416,4.167 2.084,8.334 12.5,4.167 18.402,12.152 18.402,12.152 0,0 12.5,12.552 50.173,9.427 z" />
    <path
       style="fill:none;stroke-width:4.16699982;stroke-miterlimit:10"
       id="path6"
       stroke-miterlimit="10"
       d="m 75.962,31.786 c 0,0 16.423,-3.125 29.131,0 12.708,3.125 29.375,-1.042 29.375,-1.042 0,0 -15.973,1.39 -31.944,-7.64 C 86.553,14.074 74.051,19.979 60.51,19.112 46.969,18.245 30.995,9.565 23.358,4.53 15.721,-0.505 10.685,0.015 10.685,0.015 c 0,0 -1.217,1.563 -5.384,3.646 -4.167,2.083 -10.416,4.167 2.084,8.334 12.5,4.167 18.402,10.069 18.402,10.069 m 11.571,6.652 c 0,0 11.908,3.765 22.11,2.917 m -27.083,-7.138 -6.25,14.583 m 0,-4.167 h -2.083 m 4.167,0 2.083,2.083 M 68.942,31.798 67.967,46.1 m -1.375,-3.417 -1.933,0.779 m 3.865,-1.558 2.621,0.931" />
  </symbol>
</svg>
