<?xml version="1.0" encoding="UTF-8" standalone="no"?>
<svg
   xmlns:dc="http://purl.org/dc/elements/1.1/"
   xmlns:cc="http://creativecommons.org/ns#"
   xmlns:rdf="http://www.w3.org/1999/02/22-rdf-syntax-ns#"
   xmlns:svg="http://www.w3.org/2000/svg"
   xmlns="http://www.w3.org/2000/svg"
   xmlns:xlink="http://www.w3.org/1999/xlink"
   xmlns:sodipodi="http://sodipodi.sourceforge.net/DTD/sodipodi-0.dtd"
   xmlns:inkscape="http://www.inkscape.org/namespaces/inkscape"
   viewBox="0 0 307.96384 235.92134"
   version="1.1"
   id="svg9"
   sodipodi:docname="iguana.svg"
   width="307.96387"
   height="235.92133"
   style="fill:#ffffff;fill-rule:evenodd;stroke:#000000;stroke-linecap:round;stroke-linejoin:round"
   inkscape:version="0.92.5 (2060ec1f9f, 2020-04-08)">
  <metadata
     id="metadata15">
    <rdf:RDF>
      <cc:Work
         rdf:about="">
        <dc:format>image/svg+xml</dc:format>
        <dc:type
           rdf:resource="http://purl.org/dc/dcmitype/StillImage" />
        <dc:title></dc:title>
      </cc:Work>
    </rdf:RDF>
  </metadata>
  <defs
     id="defs13" />
  <sodipodi:namedview
     pagecolor="#ffffff"
     bordercolor="#666666"
     borderopacity="1"
     objecttolerance="10"
     gridtolerance="10"
     guidetolerance="10"
     inkscape:pageopacity="0"
     inkscape:pageshadow="2"
     inkscape:window-width="1378"
     inkscape:window-height="789"
     id="namedview11"
     showgrid="false"
     fit-margin-top="0"
     fit-margin-left="0"
     fit-margin-right="0"
     fit-margin-bottom="0"
     inkscape:zoom="1.9155349"
     inkscape:cx="125.54401"
     inkscape:cy="119.97067"
     inkscape:window-x="325"
     inkscape:window-y="104"
     inkscape:window-maximized="0"
     inkscape:current-layer="svg9" />
  <use
     xlink:href="#A"
     x="2.0829999"
     y="2.0829999"
     id="use2"
     width="100%"
     height="100%"
     transform="translate(0,4.0004883e-6)" />
  <g
     id="A"
     style="overflow:visible"
     transform="matrix(2.1516963,0,0,2.1516963,8.5684001,127.34154)">
    <path
       d="m 75.962,33.574 c 0,0 16.423,-4.912 29.131,-1.787 12.708,3.125 29.375,-1.042 29.375,-1.042 0,0 -15.973,1.39 -31.944,-7.64 C 86.553,14.075 74.051,19.98 60.51,19.113 46.969,18.246 30.995,9.565 23.358,4.53 15.721,-0.505 10.685,0.015 10.685,0.015 c 0,0 -1.217,1.563 -5.384,3.646 -4.167,2.083 -10.416,4.167 2.084,8.334 12.5,4.167 18.402,12.152 18.402,12.152 0,0 12.5,12.552 50.173,9.427 z"
       id="path4"
       inkscape:connector-curvature="0"
       style="fill:#b1cc33;fill-rule:nonzero;stroke:none" />
    <path
       d="m 75.962,31.786 c 0,0 16.423,-3.125 29.131,0 12.708,3.125 29.375,-1.042 29.375,-1.042 0,0 -15.973,1.39 -31.944,-7.64 C 86.553,14.074 74.051,19.979 60.51,19.112 46.969,18.245 30.995,9.565 23.358,4.53 15.721,-0.505 10.685,0.015 10.685,0.015 c 0,0 -1.217,1.563 -5.384,3.646 -4.167,2.083 -10.416,4.167 2.084,8.334 12.5,4.167 18.402,10.069 18.402,10.069 m 11.571,6.652 c 0,0 11.908,3.765 22.11,2.917 m -27.083,-7.138 -6.25,14.583 m 0,-4.167 h -2.083 m 4.167,0 2.083,2.083 M 68.942,31.798 67.967,46.1 m -1.375,-3.417 -1.933,0.779 m 3.865,-1.558 2.621,0.931"
       stroke-miterlimit="10"
       id="path6"
       inkscape:connector-curvature="0"
       style="fill:none;stroke-width:4.16699982;stroke-miterlimit:10" />
  </g>
</svg>
