<?xml version="1.0" encoding="UTF-8" standalone="no"?>
<svg
   xmlns:dc="http://purl.org/dc/elements/1.1/"
   xmlns:cc="http://creativecommons.org/ns#"
   xmlns:rdf="http://www.w3.org/1999/02/22-rdf-syntax-ns#"
   xmlns:svg="http://www.w3.org/2000/svg"
   xmlns="http://www.w3.org/2000/svg"
   xmlns:xlink="http://www.w3.org/1999/xlink"
   xmlns:sodipodi="http://sodipodi.sourceforge.net/DTD/sodipodi-0.dtd"
   xmlns:inkscape="http://www.inkscape.org/namespaces/inkscape"
   viewBox="0 0 310.37597 246.05783"
   version="1.1"
   id="svg19"
   sodipodi:docname="jaguar.svg"
   width="310.37595"
   height="246.05783"
   style="fill:#ffffff;fill-rule:evenodd;stroke:#000000;stroke-linecap:round;stroke-linejoin:round"
   inkscape:version="0.92.5 (2060ec1f9f, 2020-04-08)">
  <metadata
     id="metadata25">
    <rdf:RDF>
      <cc:Work
         rdf:about="">
        <dc:format>image/svg+xml</dc:format>
        <dc:type
           rdf:resource="http://purl.org/dc/dcmitype/StillImage" />
        <dc:title></dc:title>
      </cc:Work>
    </rdf:RDF>
  </metadata>
  <defs
     id="defs23" />
  <sodipodi:namedview
     pagecolor="#ffffff"
     bordercolor="#666666"
     borderopacity="1"
     objecttolerance="10"
     gridtolerance="10"
     guidetolerance="10"
     inkscape:pageopacity="0"
     inkscape:pageshadow="2"
     inkscape:window-width="1635"
     inkscape:window-height="875"
     id="namedview21"
     showgrid="false"
     fit-margin-top="2"
     fit-margin-left="2"
     fit-margin-right="2"
     fit-margin-bottom="2"
     inkscape:zoom="1.8501785"
     inkscape:cx="186.93729"
     inkscape:cy="85.110569"
     inkscape:window-x="151"
     inkscape:window-y="128"
     inkscape:window-maximized="0"
     inkscape:current-layer="svg19" />
  <use
     xlink:href="#A"
     x="1.0420001"
     y="2.0829999"
     id="use2"
     width="100%"
     height="100%"
     transform="matrix(2.099417,0,0,2.099417,-5.5415987,-264.97858)" />
  <symbol
     id="A"
     overflow="visible"
     style="overflow:visible"
     transform="translate(5.2761806,167.62385)">
    <g
       id="g10"
       style="fill-rule:nonzero;stroke:none">
      <path
         d="M 18.542,0.121 10.171,4.317 4.875,8.025 3.063,13.704 0,22.434 l 3.783,4.85 12.152,-3.292 3.379,3.292 7.646,4.01 2.604,9.013 -8.421,8.217 -2.952,9.125 1.125,5.552 5.842,4.91 6.25,-5.929 c 0,0 -1.092,-6.25 1.958,-9.042 3.05,-2.792 7.033,-7.792 7.033,-7.792 v 17.5 l 1.25,5.3 4.656,0.954 2.817,-3.821 3.042,-26.921 4.721,0.604 12.488,1.139 8.767,-4.369 2.369,9.61 7.704,7.792 -1.667,9.906 2.448,4.729 5.292,-3.117 4.996,-8.573 v -7.558 l -8.638,-8.431 15.946,11.137 5.775,3.708 1.492,12.292 3.992,2.021 3.783,-2.99 -1.625,-18.821 -3.587,-2.871 -7.258,-11.875 0.579,-8.969 -1.24,-11.125 C 100.793,8.591 92.709,6.543 84.266,6.735 L 66.61,6.622 51.152,7.722 41.062,4.826 26.843,4.337 23.339,1.456 18.508,0.146 Z"
         id="path4"
         inkscape:connector-curvature="0"
         style="fill:#f4aa41" />
      <path
         d="m 83.735,30.394 c 0,0 -22.265,-9.683 -29.687,-0.417 l -1.871,8.41 9.135,2.006 15,-2.865 7.423,-7.113 z m -46.443,7.896 -10.244,5.556 -7.396,9.298 v 11.275 l 9.219,3.358 2.952,-6.135 c 0,0 -0.614,-5.469 1.552,-8.073 l 6.871,-8.594 -0.521,-4.6 -2.431,-2.083 z m 43.125,4.515 c 0,0 15.885,-2.646 20.485,5.425 V 56 l -7.812,11.777 -4.6,0.381 -2.344,-3.217 2.083,-9.115 -1.454,-3.385 -3.037,-5.271 -3.298,-4.367 z"
         id="path6"
         inkscape:connector-curvature="0" />
      <path
         d="m 108.388,23.616 c 0,0 5.208,19.313 13.283,24.608 8.075,5.295 11.892,6.208 16.406,5.34 3.777,-0.729 3.298,-5.34 3.298,-5.34 h -4.34 l -12.673,-6.729 -3.275,-6.825 -1.5,-5.937 -2.256,-8.392 -7.217,-6.696 -4.242,-2.358 2.517,12.327 z"
         id="path8"
         inkscape:connector-curvature="0"
         style="fill:#f4aa41" />
    </g>
    <g
       id="g16"
       style="fill:none;stroke-width:4.16699982">
      <path
         d="m 25.646,4.173 h 13.042 c 1.571,0 3.121,0.338 4.55,0.987 l 1.906,0.867 c 2.858,1.3 6.015,1.792 9.131,1.408 11.417,-1.41 39.271,-2.067 49.783,2.721 14.442,6.579 13.508,15.367 15.308,20.096 1.8,4.729 6.162,18.763 20.14,17.917 M 33.667,26.294 c 0.867,4.479 3.033,9.744 7.542,15.517 V 65.04 a 4.17,4.17 0 0 0 4.167,4.167 h 0.417 a 4.16,4.16 0 0 0 4.167,-4.062 c 0.208,-8.271 3.079,-31.683 5.152,-35.075 0,0 -1.327,-5.338 -2.604,-8.854 m -31.3,4.844 c 0.865,1.333 3.448,3.054 5.179,3.86 0.917,0.425 1.569,1.262 1.829,2.235 l 2.59,9.663 c 0,0 -15.319,8.277 -9.271,22.867 0.619,1.494 2.26,2.969 4.429,3.306 2.292,0.354 6.25,-1.396 4.844,-5.562 M 54.141,37.892 c 0,0 15.75,6.142 29.225,-6.142 0,0 0.215,3.635 13.09,12.677 0,0 7.813,6.042 15.9,9.819 l 1.146,11.781 c 0.208,1.938 2.458,3.2 4.404,3.2 2.204,0 3.942,-1.875 3.75,-4.075 l -1.281,-16.667 c -0.088,-1.15 -0.917,-1.99 -1.985,-2.427 -2.758,-1.129 -7.119,-8.681 -9.963,-15.062 l -0.869,-6.908"
         id="path12"
         inkscape:connector-curvature="0" />
      <path
         d="m 76.14,36.637 c 0,0 2.817,8.594 13.063,17.802 l -1.819,8.487 c -0.245,1.154 0.044,2.357 0.785,3.274 0.741,0.917 1.856,1.452 3.036,1.455 1.529,0.002 2.918,-0.89 3.552,-2.281 1.264,-2.775 2.806,-7.333 4.208,-9.458 M 24.594,7.437 c 3.614,-5.765 -3.49,-9.64 -7.823,-6.056 -3.188,2.633 -4.958,2.55 -4.958,2.55 -7.958,2.229 -7.4,8.167 -7.4,8.167 l -3.542,9.677 a 1.79,1.79 0 0 0 0.623,1.894 l 3.479,2.712 a 3.73,3.73 0 0 0 3.723,0.5 c 3.5,-1.458 11.125,-5.594 11.125,-11.765 m 21.388,30.098 c 0,0 -6.131,3.333 -8.992,7.792 m 66.033,-25.5 c -1.726,0 -3.125,-1.399 -3.125,-3.125 0,-1.726 1.399,-3.125 3.125,-3.125 0.674,-0.002 1.331,0.216 1.871,0.621 M 62.746,20.369 c -1.726,0 -3.125,-1.399 -3.125,-3.125 0,-1.726 1.399,-3.125 3.125,-3.125 0.675,-0.002 1.331,0.216 1.871,0.621 m 15.521,6.906 c -1.35,-1.076 -1.572,-3.042 -0.496,-4.392 1.076,-1.35 3.042,-1.572 4.392,-0.496 0.548,0.417 0.91,1.042 1.075,1.65 m -52.825,1.619 c -1.35,-1.076 -1.572,-3.042 -0.496,-4.392 1.076,-1.35 3.042,-1.572 4.392,-0.496 0.548,0.417 0.91,1.042 1.075,1.65 m 30.198,10.483 c 1.14,-1.273 3.09,-1.394 4.379,-0.273 1.289,1.121 1.438,3.07 0.336,4.375 -0.441,0.51 -1.037,0.861 -1.696,1 M 41.643,25.491 c 1.14,-1.272 3.09,-1.394 4.379,-0.272 1.289,1.122 1.438,3.07 0.336,4.375 -0.441,0.51 -1.036,0.861 -1.696,1"
         id="path14"
         inkscape:connector-curvature="0" />
    </g>
  </symbol>
</svg>
