<svg xmlns="http://www.w3.org/2000/svg" xmlns:xlink="http://www.w3.org/1999/xlink" viewBox="0 0 118.083 108.125" fill="#fff" fill-rule="evenodd" stroke="#000" stroke-linecap="round" stroke-linejoin="round"><use xlink:href="#A" x="1.042" y="2.083"/><symbol id="A" overflow="visible"><g stroke="none" fill-rule="nonzero"><path d="M115.213 86.956S80.617 103.765 73.963 98.8c-16.033-12 5.188-44.702-16.154-56.454-16.267-8.958-19.556-1-25.783-5.927-7.55-5.971-4.033-17.617-6.937-27.292C24.321 6.571 24.26.002 19.54.002c-3.617 0-1.712 6.615-2.771 8.61C14.298 13.258-1.573 13.546.127 21.498c1.048 4.908 7.396 1.073 13.869 1.387 4.979.242 5.937 19.438 1.619 27.146-.821 1.464-2.812 2.958-1.569 4.083 2.417 2.192 12.671 8.375 20.154 15.958 6.354 6.458-10.027 34.563-10.027 34.563s4.083.321 5.208-1.312c5.446-7.763 11.473-30.763 13.075-31.306 4.719-1.6 19.342 2.723 19.167 3.75a32.48 32.48 0 0 0 1.721 17.285c7 20.485 37.077 8.208 48.417.975 4.375-2.792 4.171-5.594 3.412-7.025z" fill="#a57939"/><path d="M49.483 72.446c1.208 5.385 2.987 28.167.098 31.563-.671.792-4.812.704-4.837.617-1.562-5.277.704-33.51.704-33.51s3.721-.077 4.035 1.329z" fill="#6a462f"/></g><path d="M113.513 88.14S83.304 105.16 73.985 98.798C57.46 87.49 78.006 56 57.833 42.344c-12.604-8.533-18.404.292-25.783-5.927-7.36-6.202-4.033-17.617-6.937-27.292C24.346 6.569 24.285 0 19.565 0c-3.617 0-1.712 6.615-2.771 8.61C14.323 13.256-1.548 13.544.152 21.496c1.048 4.908 7.396 1.073 13.869 1.387 5.642.275 7.917 27.65-.4 29.542-1.783.406-7.525-3.958-9.312-1m57.358 22.24s-17.035-6.131-17.158-2.417c-.083 2.471 2.625 24.467.392 31.354h-8.5M22.233 57.4a85.38 85.38 0 0 0 11.723 10.244c6.1 4.594-4.954 22.902-9.312 34.958h-9.108" fill="none" stroke-width="4.167"/></symbol></svg>