<svg xmlns="http://www.w3.org/2000/svg" xmlns:xlink="http://www.w3.org/1999/xlink" viewBox="0 0 114.083 130.083" fill="#fff" fill-rule="evenodd" stroke="#000" stroke-linecap="round" stroke-linejoin="round"><use xlink:href="#A" x="1.042" y="1.042"/><symbol id="A" overflow="visible"><g stroke="none" fill-rule="nonzero"><path d="M20.205 37.065C18.643 37.586 2.497 56.509.935 68.488s-.694 16.84-.694 16.84 5.902 18.229 23.265 27.256c0 0 27.256 27.431 62.673.521 0 0 17.36-5.902 25-30.381l-.694-20.139-5.035-12.848s-9.375-9.027-9.723-9.896-11.285-8.333-11.285-8.333l-3.994-1.215-49.827.869-10.417 5.902z" fill="#a57939"/><path d="M105.972 28.123l.521-11.979-2.344-8.073L92.43 6.508l-10.937 5.208-6.51 5.469-6.771-11.198L55.972.258 34.878 4.425l-2.344.521s-4.948 3.646-4.687 5.208c0 0-14.062-6.25-20.052-.781 0 0-7.812 14.323.781 23.698l8.333 7.292s-19.792 17.969 2.604 40.625c0 0-5.458 11.708 2.319 24.827l6.708 13.888c12.5 11.111 40.452 10.59 52.952-.521l4.844-10.027c1.908-2.258 9.719-12.375 7.656-24.521 0 0 17.708-16.927 3.385-43.229l-3.385-3.125 6.25-3.385 5.729-6.771z" fill="#f4aa41"/><path d="M27.326 9.765s2.083-4.035 8.073-6.25S47.507 0 47.507 0l14.454 2.083c1.042.131 12.5 13.152 12.5 13.152l.912 5.079s-3.775 3.906-13.671-1.171-12.108-4.948-12.5-4.687-11.719 4.819-11.719 4.819l-4.296-3.515-5.858-5.99z" fill="#a57939"/><path d="M80.102 72.135c.173-.433 3.125-18.056 3.125-18.056h-.348s-5.556 9.983-11.719 11.806l-1.042 3.213.196 3.163c-1.304-.129-2.625-.05-3.537.527-2.473 1.563-4.948 1.042-4.948 1.042l-3.775 3.517-1.171 1.823-3.515-1.171s-1.431-4.167-1.823-4.296l-4.296-1.562-2.473.913s-1.994-.671-4.138-.213l.229-3.737-1.042-3.213c-6.163-1.823-11.719-11.806-11.719-11.806h-.348l3.125 18.056c.133.333 3.563 3.756 5.125 5.313-1.49 4.629.427 9.667.427 9.667l4.688 5.86 10.938-1.562 4.038-3.254 3.777 1.954 8.204 3.125 5.208-2.733 3.646-9.765c.069-.204-.542-2.223-1.135-4.104l4.304-4.49z"/><path d="M37.135 21.615s.954 5.989-4.775 11.892l-9.463 2.171-5.556 3.125c-.694.348-3.558-.608-4.254-1.129S5.883 26.215 5.883 26.215l.348-7.552 2.171-9.115 9.723-1.215 8.333 2.171 7.985 6.337 2.692 4.775zm37.473-1.738s-.954 5.99 4.775 11.892l9.463 2.171 5.556 3.125c.694.348 3.558-.608 4.254-1.129s7.204-11.458 7.204-11.458l-.348-7.552-2.171-9.115-9.723-1.215-8.333 2.171-7.985 6.338-2.692 4.775z" fill="#f4aa41"/><path d="M38.435 90.885l4.167 9.375 5.381 3.298 11.979.869 9.202-3.298L74.2 90.191l-6.119 3.035-9.158-3.037-3.125-2.777-6.423 3.473s0 2.777-3.646 1.91l-7.292-1.91z"/><path d="M38.594 53.27a4.167 4.167 0 1 1 4.297-7.14 4.167 4.167 0 1 1-4.297 7.14zm29.17-1.426a4.167 4.167 0 1 1 7.14-4.297 4.167 4.167 0 1 1-7.14 4.297z" fill="#000"/></g><g fill="none" stroke-width="4.167"><path d="M64.941 73.656s-3.896-2.777-6.125 4.34l-2.969 2.256-2.969-2.256c-2.229-7.119-6.125-4.34-6.125-4.34"/><path d="M70.261 67.231l4.475 7.333c.404.663.673 1.388.792 2.14l.679 4.329c.179 1.135.008 2.296-.49 3.348l-2.375 5.015c-.869 1.833-2.65 3.167-4.775 3.571a7.21 7.21 0 0 1-4.014-.381l-2.712-1.083c-.66-.265-1.271-.625-1.808-1.069l-2.865-2.369H54.53l-2.867 2.371c-.537.444-1.146.804-1.808 1.069l-2.712 1.083a7.23 7.23 0 0 1-4.014.381c-2.125-.406-3.908-1.737-4.777-3.571l-2.375-5.015a5.73 5.73 0 0 1-.49-3.348l.679-4.329c.119-.75.385-1.479.792-2.14l4.475-7.333m14.414 13.019v5.729M44.41 99.61l1.604 1.654a9.74 9.74 0 0 0 6.552 2.946l6.285.283a9.74 9.74 0 0 0 6.64-2.221l1.8-1.487M17.747 39.831C-3.082 31.414 7.76 10.289 7.76 10.289c15.8-9.548 28.82 9.896 28.82 9.896s10.179-9.681 25.635-2.871m-31.369 14.85S-5.264 44.837 2.201 84.248m19.121-6.173c-5.417 7.792-7.469 20.833 9.375 40.546m.171-76.91s-11.667 17.5 4.485 37.083M33.645 6.706s26.469-19.792 41.379 11.11m0 .515s13.021-19.444 28.819-9.896c0 0 10.842 21.125-9.987 29.542m-13.104-7.708s36.11 12.673 28.646 52.083m-16.875-2.096c3.35 7.983 2.573 19.844-11.6 36.471m-.173-76.908s11.667 17.5-4.485 37.083"/></g></symbol></svg>