<svg xmlns="http://www.w3.org/2000/svg" xmlns:xlink="http://www.w3.org/1999/xlink" viewBox="0 0 110.167 96.167" fill="#fff" fill-rule="evenodd" stroke="#000" stroke-linecap="round" stroke-linejoin="round"><use xlink:href="#A" x="2.083" y="2.083"/><symbol id="A" overflow="visible"><g stroke="none" fill-rule="nonzero"><path d="M48.665 7.978l-6.562-6.694-9.444.285-5.848 7.033.417 6.619 2.654.7 14.446-1.246zM33.302 47.144l-1.736 4.948-5.15 7.052-.369 6.181 2.069 2.646c2.725.66 5.279.49 7.617-.729l6.25-4.385 5.833-9.292 1.025-7.288-11.396 1.167-4.142-.298z" fill="#9b9b9a"/><path d="M51.644 3.353L44.09 4.978l-6.196 4.95-2.896 5.271-8.563.923-11.854 3.26-6.344 4.429-6.563 9.629-1.673 6.013 3.604 4.548 12.946 2.708 18.077-.129 3.971 2.735 3.45 2.635-3.579 7.402-1.729 6.625 4.292 3.333 10.61-5.312 5.048-2.842L66.7 62.428l12.848 3.542 11.806-4.833 3.298-2.021 5.146-8.254 1.5-3.758 2.037-13.942-5.702-10.5-8.881-10.923-13.542-2.55-9.262 1.579-4.975-4.285-9.329-3.129" fill="#d0cfce"/></g><path d="M93.296 57.953c-1.85 1.756-4.092 3.215-6.917 4.392-4.583 1.917-9.696 2.367-14.638 1.667l-18.604-2.556m12-49.119c4.167-2.083 10.417-4.167 20.833 0 7.975 3.188 20.833 16.667 14.625 33.229a66.81 66.81 0 0 1-1.373 3.402M58.04 50.099c-1.073 3.904-9.104 13.656-12.112 17.338-3.35 4.098-13.958 1.15-10.121-6.458 1.542-3.062 3.987-5.617 4.485-9.006.103-.703.17-1.411.202-2.121M28.273 65.934c-1.458-1.521-1.719-4.117.833-7.662 1.285-1.788 4.492-5.55 4.744-9.875l-8.783-.485C-3.766 47.821-.023 37.144.361 36.053c.625-1.777 8.365-13.677 14.385-16.667 9.104-4.552 20.177-3.408 20.177-3.408 3.129-11.958 21.927-20.15 29.588-2.275 6.827 15.931-9.792 21.569-16.042 21.569m50.75 13.694c4.167 0 7.583 7.119 5.5 13.369s-3.796 8.246-12.9 12.796c-18.208 9.104-40.967 4.552-61.76.75-13.125-2.404-19.24 1.333-21.175 5.204-2.275 4.552 3.5 12.208 14.658 10m5.29-82.481c.327-1.771.965-3.383 1.756-4.554 4.596-6.808 14.235-3.779 15.921 0" fill="none" stroke-width="4.167" stroke-miterlimit="10"/></symbol></svg>