<svg xmlns="http://www.w3.org/2000/svg" xmlns:xlink="http://www.w3.org/1999/xlink" viewBox="0 0 119.167 100.125" fill="#fff" fill-rule="evenodd" stroke="#000" stroke-linecap="round" stroke-linejoin="round"><use xlink:href="#A" x="2.083" y="1.042"/><symbol id="A" overflow="visible"><g stroke="none" fill-rule="nonzero"><path d="M106.27 40.441c4.167-12.75-6.25-12.75-6.25-12.75-14.583 2.125-4.167 14.875-4.167 14.875s12.5 23.375-9.548 22.552-15.452-22.552-15.452-22.552c12.646-10.833 8.333-23.375 8.333-23.375C72.937-2.055 56.27.07 56.27.07s-16.667-2.125-22.917 17c0 0-6.25 19.125 8.333 25.496 0 0 8.333 23.375-16.667 23.375 0 0-20.833 0-8.333-27.621 0 0 4.167-14.875-8.333-10.625 0 0-6.25 2.125-4.167 12.75 0 0-10.417 44.619 29.167 33.996 0 0 33.333-6.375 45.833 0s29.167 2.125 29.167-19.125l-2.083-14.875z" fill="#d22f27"/><g fill="#ea5a47"><path d="M50.02 43.82s8.333 23.854-14.583 30.358c0 0-14.583-2.167-14.583 10.842s8.333 13.01 12.5 10.842 6.25-8.673 6.25-8.673 0-6.125-8.333.383-6.25-6.888 8.333-9.056S60.437 52.493 56.27 43.82h-6.25zM21.095 70.903s-4.167 2.083-8.333-2.083-8.333-2.083-8.333-2.083-8.333 2.083-2.083 10.417c0 0 2.083 4.167 8.333 2.083 0 0 3.925-2.083-.242-4.167s-8.333-4.167-4.167-4.167 12.979 10.417 14.825 0z"/><path d="M61.703 43.82S53.37 67.674 76.287 74.178c0 0 14.583-2.167 14.583 10.842s-8.333 13.01-12.5 10.842-6.25-8.673-6.25-8.673.817-6.123 9.15.381 5.433-6.887-9.15-9.056S51.287 52.472 55.453 43.82h6.25zM93.77 70.903s4.167 2.083 8.333-2.083 8.333-2.083 8.333-2.083 8.333 2.083 2.083 10.417c0 0-2.083 4.167-8.333 2.083 0 0-3.925-2.083.242-4.167s8.333-4.167 4.167-4.167-12.979 10.417-14.825 0z"/></g></g><path d="M106.27 39.653c4.167-12.5-6.25-12.5-6.25-12.5-14.583 2.083-4.167 14.583-4.167 14.583s12.5 22.917-9.548 22.112-15.452-22.112-15.452-22.112c12.646-10.619 8.333-22.917 8.333-22.917C72.937-2.013 56.27.07 56.27.07S39.604-2.013 33.354 16.737c0 0-6.25 18.75 8.333 25 0 0 8.333 22.917-16.667 22.917 0 0-20.833 0-8.333-27.083 0 0 4.167-14.583-8.333-10.417 0 0-6.25 2.083-4.167 12.5m45.833 6.25S58.354 68.82 35.437 75.07c0 0-14.583-2.083-14.583 10.417s8.333 12.5 12.5 10.417 6.25-8.333 6.25-8.333m22.292-41.667S53.562 68.82 76.479 75.07c0 0 14.583-2.083 14.583 10.417s-8.333 12.5-12.5 10.417-6.25-8.333-6.25-8.333M21.074 70.903s-4.167 2.083-8.333-2.083-8.333-2.083-8.333-2.083-8.333 2.083-2.083 10.417c0 0 2.083 4.167 8.333 2.083m83.113-8.333s4.167 2.083 8.333-2.083 8.333-2.083 8.333-2.083 8.333 2.083 2.083 10.417c0 0-2.083 4.167-8.333 2.083" fill="none" stroke-width="4.167" stroke-miterlimit="10"/></symbol></svg>