<svg xmlns="http://www.w3.org/2000/svg" xmlns:xlink="http://www.w3.org/1999/xlink" viewBox="0 0 98.167 124.167" fill="#fff" fill-rule="evenodd" stroke="#000" stroke-linecap="round" stroke-linejoin="round"><use xlink:href="#A" x="2.083" y="2.083"/><symbol id="A" overflow="visible"><g stroke="none" fill-rule="nonzero"><path d="M64.524 11.936c2.008-2.006 8.417-4.8 9.083-6.14.319-.635-1.358-1.723-2.008-2.008-1.996-.875-6.694 0-8.702-.333-7.363-3.681-12.717-4.35-17.402-2.344-7.362 3.348-8.7 12.048-8.7 15.396 0 3.021-.167 9.075-.671 12.048-.202 1.202-.865 3.563-1.337 4.688-1.34 4.688-4.688 9.371-7.365 12.717-1.927 2.41-18.071 20.75-20.75 26.104-2.404 4.658-8.7 15.396-6.021 19.41 2.729.392 3.346-8.7 16.76-19.41 3.244-2.931 8.625-8.402 9.617-10.125.469-.817.021 3.225 0 4.167-.312 16.381 2.083 25 2.069 34.74 1.004 5.354 1.048 7.275 0 9.371-3.012 6.021-8.367 6.021-9.708 8.367 0 0 6.25 4.375 20.483-4.271m25.444-46.448c2.298 2.323 8.744 6.681 10.365 8.215 4.046 3.825 13.717 17.402 15.883 15.396.729-.667 1.848-4.058 1.448-5.354-1.696-5.504-8.983-16.667-14.923-26.937-6.004-10.388-10.298-19.558-10.298-19.558l-6.777-7.421m-13.667 82.75c11.098 9.304 25.108 1.906 25.108 1.906 0-1.198-8.217-5.492-16.702-9.865" fill="#3f3f3f"/><use xlink:href="#C"/></g><g fill="none" stroke-width="4.167"><use xlink:href="#C"/><path d="M64.524 11.936c2.008-2.006 8.417-4.8 9.083-6.14.319-.635-1.358-1.723-2.008-2.008-1.996-.875-6.694 0-8.702-.333-7.363-3.681-12.717-4.35-17.402-2.344-7.362 3.348-8.7 12.048-8.7 15.396 0 3.021-.167 9.075-.671 12.048-.202 1.202-.865 3.563-1.337 4.688-1.34 4.688-4.688 9.371-7.365 12.717-1.927 2.41-18.071 20.75-20.75 26.104-2.404 4.658-8.7 15.396-6.021 19.41 2.729.392 3.346-8.7 16.76-19.41 3.244-2.931 8.625-8.402 9.617-10.125.469-.817.021 3.225 0 4.167-.312 16.381 2.083 25 2.069 34.74 1.004 5.354 1.048 7.275 0 9.371-3.012 6.021-8.367 6.021-9.708 8.367 0 0 6.25 4.375 20.483-4.271m30.833-44.208c2.131 2.323 4.744 4.442 6.25 5.975 3.75 3.825 12.717 17.402 14.725 15.396.675-.667 1.715-4.058 1.344-5.354-4.017-14.054-18.771-31.308-26.583-44.896m-12.6 75.438c9.913 3.819 17.729.996 17.729.996-.548-.775-6.146-3.771-9.329-5"/></g></symbol><defs ><path id="C" d="M37.441 16.103c.063 2.758 15.177 14.225 22.917 2.083 0 0-2.177 22.958 2.083 31.25 4.975 9.688-1 47.646-10.417 60.417-3.183 4.313-14.896 10.896-20.833-10.417s-4.167-20.546-4.167-33.333 15.688-39.583 10.417-50z"/></defs></svg>