<?xml version="1.0" encoding="UTF-8" standalone="no"?>
<svg
   xmlns:dc="http://purl.org/dc/elements/1.1/"
   xmlns:cc="http://creativecommons.org/ns#"
   xmlns:rdf="http://www.w3.org/1999/02/22-rdf-syntax-ns#"
   xmlns:svg="http://www.w3.org/2000/svg"
   xmlns="http://www.w3.org/2000/svg"
   xmlns:sodipodi="http://sodipodi.sourceforge.net/DTD/sodipodi-0.dtd"
   xmlns:inkscape="http://www.inkscape.org/namespaces/inkscape"
   id="emoji"
   viewBox="0 0 72 72"
   version="1.1"
   sodipodi:docname="qualia.svg"
   inkscape:version="0.92.5 (2060ec1f9f, 2020-04-08)">
  <metadata
     id="metadata23">
    <rdf:RDF>
      <cc:Work
         rdf:about="">
        <dc:format>image/svg+xml</dc:format>
        <dc:type
           rdf:resource="http://purl.org/dc/dcmitype/StillImage" />
        <dc:title />
      </cc:Work>
    </rdf:RDF>
  </metadata>
  <defs
     id="defs21" />
  <sodipodi:namedview
     pagecolor="#ffffff"
     bordercolor="#666666"
     borderopacity="1"
     objecttolerance="10"
     gridtolerance="10"
     guidetolerance="10"
     inkscape:pageopacity="0"
     inkscape:pageshadow="2"
     inkscape:window-width="1763"
     inkscape:window-height="933"
     id="namedview19"
     showgrid="false"
     inkscape:zoom="8"
     inkscape:cx="26.808923"
     inkscape:cy="42.726294"
     inkscape:window-x="15"
     inkscape:window-y="25"
     inkscape:window-maximized="0"
     inkscape:current-layer="layer1"
     inkscape:snap-global="false" />
  <g
     inkscape:groupmode="layer"
     id="layer1"
     inkscape:label="Layer 1"
     style="display:inline;opacity:1">
    <g
       id="g909"
       transform="matrix(1.1597128,0,0,1.097223,-6.5219293,-4.215175)">
      <path
         inkscape:connector-curvature="0"
         id="path836"
         d="m 16.277858,18.693762 -0.11535,-0.136241 0.136241,0.11535 c 0.128033,0.1084 0.163807,0.157132 0.11535,0.157132 -0.01149,0 -0.0728,-0.06131 -0.136241,-0.136241 z"
         style="fill:#cfcecc;stroke-width:0.06055155" />
      <path
         inkscape:connector-curvature="0"
         id="path832"
         d="m 15.890026,14.71607 c 0,-0.03134 0.02694,-0.07362 0.05986,-0.09397 0.03432,-0.02121 0.04448,0.0031 0.0238,0.05698 -0.04026,0.1049 -0.08366,0.124094 -0.08366,0.03699 z"
         style="fill:#cfcecc;stroke-width:0.06055155" />
      <path
         inkscape:connector-curvature="0"
         id="path1092"
         d="m 16.374439,13.781362 c 0,-0.01257 0.04768,-0.06026 0.105965,-0.105966 0.09604,-0.07532 0.09818,-0.07318 0.02286,0.02286 -0.0791,0.100864 -0.128826,0.13294 -0.128826,0.0831 z"
         style="fill:#cfcecc;stroke-width:0.06055155" />
      <path
         style="fill:#a47838;stroke-width:0.06055155"
         d="m 59.458923,58.423292 c -2.134688,-0.348595 -3.736968,-1.894916 -5.914344,-1.953116 -2.15651,-0.388514 -3.851246,-2.854286 -6.089062,-1.232786 -3.828094,1.054984 -7.887569,0.451778 -11.730484,-0.12992 -2.06565,-0.411338 -3.786541,-1.660235 -5.66328,-2.566664 -2.827374,-1.419014 -4.790935,-3.962069 -7.153707,-5.987505 -2.238858,-2.853605 -4.952447,-5.642911 -5.565468,-9.364503 -0.402061,-3.942142 -0.347189,-7.939482 -0.0015,-11.87976 0.306034,-1.917964 0.343469,-2.449911 0.398965,-4.046423 -0.493103,-1.101069 -0.924541,-1.801709 -3.593622,-3.115253 1.297311,-2.509935 2.51139,-4.437273 2.827479,-4.905407 0.989698,-0.60744 3.039139,-1.269699 5.214457,-1.066008 2.504392,0.679985 4.891956,2.694865 5.431972,5.314003 1.130137,1.687564 1.377372,3.9182 3.133673,5.187444 1.839512,1.954645 4.393888,2.925447 6.443442,4.614355 2.210526,1.213952 4.525043,2.226934 6.608843,3.670436 1.832752,1.342698 4.130589,1.82828 5.801247,3.400498 2.453837,1.90286 4.410173,4.342809 5.929561,7.033443 1.09378,1.854993 1.833089,3.944664 2.40838,6.026759 0.431735,2.702514 1.118711,5.355249 1.843705,7.987742 -0.312828,0.776839 1.440223,3.594522 -0.330295,3.012665 z"
         id="path1088"
         inkscape:connector-curvature="0"
         sodipodi:nodetypes="cccccccccccccccccccccc" />
      <path
         style="fill:#cfcecc;stroke-width:0.06055155"
         d="m 16.408833,15.985331 c 0.516253,-1.078828 2.375232,-1.305205 1.530324,-0.437413 -0.844908,0.867792 -0.61998,1.274351 0.609932,1.045076 2.272747,0.01037 0.687655,0.668798 -0.634645,1.046769 -0.849233,0.255989 -2.290792,0.724305 -3.885553,0.848462 0.759051,-1.711945 1.60028,-2.03879 2.379942,-2.502894 z"
         id="path834"
         inkscape:connector-curvature="0"
         sodipodi:nodetypes="czcccc" />
    </g>
    <path
       style="opacity:1;fill:none;fill-opacity:1;stroke:#000000;stroke-width:2.66204572;stroke-linecap:round;stroke-miterlimit:4;stroke-dasharray:none;stroke-dashoffset:0"
       d="m 24.267909,27.557362 c 3.172711,3.354063 4.711017,9.204421 8.951554,11.097363 1.950083,1.051728 6.561256,3.700791 8.797553,3.728564 3.554773,0.476695 7.663501,0.825585 11.296982,0.114228"
       id="path973"
       inkscape:connector-curvature="0"
       sodipodi:nodetypes="cccc" />
    <path
       style="opacity:1;vector-effect:none;fill:none;fill-opacity:1;stroke:#000000;stroke-width:2.01225495;stroke-linecap:round;stroke-linejoin:miter;stroke-miterlimit:4;stroke-dasharray:none;stroke-dashoffset:0;stroke-opacity:1"
       d="m 37.23848,56.645561 -2.970584,2.529409 -5.155413,1.040369 c -1.881795,1.454507 -1.809831,1.303461 -1.300536,2.017584"
       id="path1026"
       inkscape:connector-curvature="0"
       sodipodi:nodetypes="cccc" />
    <path
       style="opacity:1;vector-effect:none;fill:none;fill-opacity:1;stroke:#000000;stroke-width:2.01225495;stroke-linecap:round;stroke-linejoin:miter;stroke-miterlimit:4;stroke-dasharray:none;stroke-dashoffset:0;stroke-opacity:1"
       d="m 33.856132,59.410263 1.076917,2.58859"
       id="path1028"
       inkscape:connector-curvature="0"
       sodipodi:nodetypes="cc" />
    <path
       style="opacity:1;vector-effect:none;fill:none;fill-opacity:1;stroke:#000000;stroke-width:2.01225495;stroke-linecap:round;stroke-linejoin:miter;stroke-miterlimit:4;stroke-dasharray:none;stroke-dashoffset:0;stroke-opacity:1"
       d="m 42.385532,57.410265 -1.235291,2.499998 -1.811345,0.739114 c -1.389181,0.308519 -1.659094,1.014269 -2.304714,1.50627"
       id="path1030"
       inkscape:connector-curvature="0"
       sodipodi:nodetypes="cccc" />
    <path
       style="opacity:1;vector-effect:none;fill:none;fill-opacity:1;stroke:#000000;stroke-width:2.01225495;stroke-linecap:round;stroke-linejoin:miter;stroke-miterlimit:4;stroke-dasharray:none;stroke-dashoffset:0;stroke-opacity:1"
       d="m 41.150241,59.822027 1.823526,1.382352 0.941176,1.588233"
       id="path1032"
       inkscape:connector-curvature="0" />
  </g>
  <g
     inkscape:groupmode="layer"
     id="layer4"
     inkscape:label="Layer 4"
     style="display:inline">
    <path
       style="display:inline;fill:none;fill-opacity:1;stroke:#000000;stroke-width:2.66204572;stroke-linejoin:miter;stroke-miterlimit:4;stroke-dasharray:none"
       d="m 11.873562,15.760806 c -0.995598,-0.326532 -3.282578,0.898145 -1.859196,-1.180454 1.930936,-1.673804 2.126246,-4.9340962 5.14473,-5.2666696 2.808412,-0.8542624 5.946376,-0.1770792 8.020438,1.9457396 2.138154,1.928889 2.733205,4.848541 4.083341,7.305454 1.888559,2.800667 4.980812,4.336099 7.771266,6.052665 2.651512,2.024942 5.959766,2.87219 8.692014,4.77974 2.154044,1.511486 4.775063,2.108243 6.842493,3.72513 2.950397,2.125242 5.380328,4.873775 7.230639,7.990683 1.416698,2.310191 2.414063,4.931296 3.019847,7.586292 0.358531,3.257928 1.785497,6.273659 2.162795,9.513839 1.208622,3.308489 -3.560131,0.739024 -4.836066,-0.135094 -2.306253,0.01198 -4.639379,-0.935356 -6.570032,-2.240353 -2.597833,-0.233104 -5.206726,1.423032 -7.959495,1.080274 -3.779027,-0.109504 -7.692869,-0.179491 -11.266821,-1.534466 -3.310848,-1.648609 -6.820417,-3.134625 -9.353962,-5.938251 -2.645246,-2.090226 -4.865317,-4.61471 -6.85526,-7.327505 -2.572791,-2.904019 -2.995465,-6.897292 -2.939069,-10.614821 -0.04139,-3.750946 -0.0091,-7.536433 0.941523,-11.18834 0.492356,-1.944004 -1.256058,-3.176312 -2.269185,-4.553863 z"
       id="path1086-3"
       inkscape:connector-curvature="0" />
    <circle
       style="opacity:1;fill:#352318;fill-opacity:1;stroke:#000000;stroke-width:0;stroke-linecap:round;stroke-linejoin:miter;stroke-miterlimit:4;stroke-dasharray:none;stroke-dashoffset:0"
       id="path1011"
       cx="16.856152"
       cy="12.616203"
       r="0.82352853" />
  </g>
  <g
     inkscape:groupmode="layer"
     id="layer3"
     inkscape:label="Layer 3" />
</svg>
