<svg xmlns="http://www.w3.org/2000/svg" xmlns:xlink="http://www.w3.org/1999/xlink" viewBox="0 0 115.125 98.083" fill="#fff" fill-rule="evenodd" stroke="#000" stroke-linecap="round" stroke-linejoin="round"><use xlink:href="#A" x="2.083" y="1.042"/><symbol id="A" overflow="visible"><g stroke="none" fill-rule="nonzero"><path d="M35.202 33.438l-5.2 18.125-20.204 3.01s-.042 6.563.479 7.667 5.756 8.992 5.756 8.992l9.087 5.854 3.256 3.45-2.733 4.558s-6.458 4.875-6.119 5.34 1.917 3.904 1.917 3.904l8.5.896 6.902-2.588c.063-.196 6.187-10.025 6.187-10.025s8.208-2.217 11.133 3.45l8.792-7.681 4.688-24.283-3.906-7.812c-.062-.26-11.008-10.525-11.008-10.525l-12.298 3.883-5.229-6.215z"/><path d="M21.192 23.848L8.219 31.452.023 44.258l1.963 8.496c.196-.063 16.406 3.4 16.406 3.4l13.604-5.417L21.19 23.85z"/><path d="M38.598 22.376l3.867-11.208L40.766.021l-7.119 3.035-3.994 2.777S27.227-.062 23.404.001l-6.785 7.996-1.638 9.798-1.823 1.91s.548 6.306 1.823 6.598c.479.11 1.4.008 2.358-.158l-7.125 3.958S5.168 47.596 21.058 55.801c4.896.271 6.567 1.358 11.454-3.09 0 0 7.188-9.077 1.208-21.833-.058-.467-.121-.808-.121-.808l4.994-7.708zm8.6 14.542s27.925 18.702 8.838 45.004l-2.16 6.121 3.479 4.05 12.931 3.783 15.625-1.302 10.548-7.681.9-8.115-2.071-12.198-6.844-11.719-9.577-11.263-9.869-5.954-21.8-.727z" fill="#3f3f3f"/><path d="M96.798 75.494l6.75-1.125 7.683 3.842.369 7.162c.152.196-6.358 6.604-6.554 6.721s-4.948 2.004-4.948 2.004-6.833.679-10.092-2.004l6.121-5.483.671-11.115z"/></g><g fill="none" stroke-width="4.167"><path d="M30.798 50.525c-4.927 10.652-27.579 2.131-27.579 2.131-1.243-.563-2.132-1.699-2.379-3.042l-.771-4.194c-.184-1 .004-2.033.529-2.904l4.042-6.702c1.939-3.216 4.759-5.81 8.125-7.475l7.742-3.827S27.898 1.908 39.923.021c0 0 9.583 9.708-7.246 31.302 0 0 4.219 2.89 7.535 8.406 0 0 31.783-18.5 51.881 21.594 18.642 37.177-17.36 34.865-29.6 33.119-3.125-.442-5.908-2.298-7.219-5.146-1.369-2.971-1.077-6.506 6.973-7.542M12.285 62.259c.694 6.077 4.323 12.823 13.89 14.208 0 0 3.042 3.75 0 6.958l-5.098 4.7c-2.642 2.617-.783 7.125 2.917 7.125h8.11c1.43 0 2.759-.733 3.523-1.942l7.75-12.277 2.658-8.281"/><path d="M103.952 76.465s10.219-.217 7.031 8.042-10.504 7.567-10.504 7.567M15.021 18.594C14.7 12.231 16.584 3.536 23.409.023c0 0 4.035-.485 6.583 6.642"/></g></symbol></svg>