<svg xmlns="http://www.w3.org/2000/svg" xmlns:xlink="http://www.w3.org/1999/xlink" viewBox="0 0 132.125 87.125" fill="#fff" fill-rule="evenodd" stroke="#000" stroke-linecap="round" stroke-linejoin="round"><use xlink:href="#A" x="1.042" y="1.042"/><symbol id="A" overflow="visible"><g stroke="none" fill-rule="nonzero"><path d="M126.565 43.844l-9.027 15.625s-.433 14.8-19.358 14.104c0 0-69.14-15.233-89.235 10.208l26.492-8.156 33.279-.556 33.631 5.142 17.385-6.963 8.75-9.444-.271-14.225-1.646-5.74" fill="#ffa7c0"/><path d="M127.742 47.642l-5.517-16.937-11.979-14.906-16.237-7.371-14.492-1.042-16.494 3.285H49.652l-8.854-2.764L39.583 0l-6.371 2.698-3.954 4.237-13.075 2.537L0 15.796l2.552 5.958 7.713 4.667 6.75 3.865 11.806.417 2.777 7.237 5.279 6.848 2.015 4.092-5.679 13.542 1.854 5.121 5.446-1.675 16.592-14.792s5.667 5.908 14.819 6.879l-2.221 5.485 2.221 3.583 6.763-1.256 6.277-3.054 9.521 2.583c8.675 1.171 16.469-.431 23.05-5.848 4.492-3.254 7.888-7.202 10.204-11.829z" fill="#9b9b9a"/></g><g fill="none" stroke-width="4.167"><path d="M30.917 28.983c-14.062 5.012-20.075-2.535-20.075-2.535-6.392 0-8.896-5.181-9.792-8.008-.312-.999.166-2.074 1.117-2.513l13.031-6.031a21.65 21.65 0 0 1 5.958-1.773l8.712-1.275s10.775-13.458 11.64.09c0 0 .694 11.806-5.875 9.279m21.479 11.963c5.208 7.35 0 22.917 0 22.917L40.521 65.888c-1.009 1.019-2.471 1.447-3.871 1.133l-.181-.042c-2.635-.592-4.017-3.49-2.812-5.908 3.079-6.187 5.871-13.846 5.871-13.846-2.917-1.469-4.583-5.615-6.069-10.062"/><path d="M10.929 83.783c28.125-15.406 62.848-8.256 88.217-4.625 17.125 2.45 38.246-13.215 25.371-42.235-18.275-41.187-54.723-28.346-60.49-26.188S41.485 6.933 41.485 6.933"/><path d="M115.812 58.86c-11.046 13.281-30.283 3.587-30.283 3.587s-9.996 5.094-11.287 5.094H73.9a4.17 4.17 0 0 1-3.631-6.208l4.917-9.952C63.339 33.506 88.193 24.433 88.193 24.433"/></g></symbol></svg>