<svg xmlns="http://www.w3.org/2000/svg" xmlns:xlink="http://www.w3.org/1999/xlink" viewBox="0 0 104.167 111.125" fill="#fff" fill-rule="evenodd" stroke="#000" stroke-linecap="round" stroke-linejoin="round"><use xlink:href="#A" x="2.083" y="1.042"/><symbol id="A" overflow="visible"><g stroke="none" fill-rule="nonzero"><path d="M24.678 67.411c45.896-26.177 50.417-.323 57.223-6.896 2.073-2.008 18.092-7.825 18.092-7.825s-5.729 48.542-26.229 51.911c-15.371 2.525-47.342 4.533-58.408 0C-3.77 96.767.428 70.547 4.114 61.809c4.281-10.15 23.829-18.304 19.45-40.212-.385-1.933-.412-4.312-2.667-5.271-3.173-1.348-9.333 6.862-15.471 4.425 0 0 7.9-18.215 14.458-20.277 9.412-2.963 16.381 8.725 17.475 14.213 2.327 11.667-8.938 29.194-9.992 37.708-.056.458-2.694 15.017-2.694 15.017z"/><path d="M12.013 11.599c-.281 2.679 4.027 5.158 4.506 6.798.615 2.108-8.742.871-8.742.871s4.465-9.846 4.235-7.667z" fill="#f4aa41"/></g><g fill="none" stroke-width="4.167"><path d="M31.674 64.47c6.344-1.875 17.673-14.875 41.275-5.833 17.183 6.583 27.048-5.927 27.048-5.927s-4.379 46.563-26.25 51.91c-15.129 3.704-47.342 4.533-58.408 0C-3.786 96.787-1.797 72.345 4.097 61.828c6.042-10.821 21.129-17.875 21.392-40.212m-.979 47.917c1.458-25.171 14.721-42.533 12.833-54.804C35.895 5.297 29.48-1.438 20.068 1.524 13.512 3.607 5.414 20.795 5.414 20.795c6.156 2.417 15.49-4.425 15.49-4.425"/><path d="M78.366 71.161c-4.444 7.292-24.792 11.054-34.692 11.302"/></g></symbol></svg>