<?xml version="1.0" encoding="UTF-8" standalone="no"?>
<svg
   xmlns:dc="http://purl.org/dc/elements/1.1/"
   xmlns:cc="http://creativecommons.org/ns#"
   xmlns:rdf="http://www.w3.org/1999/02/22-rdf-syntax-ns#"
   xmlns:svg="http://www.w3.org/2000/svg"
   xmlns="http://www.w3.org/2000/svg"
   xmlns:xlink="http://www.w3.org/1999/xlink"
   xmlns:sodipodi="http://sodipodi.sourceforge.net/DTD/sodipodi-0.dtd"
   xmlns:inkscape="http://www.inkscape.org/namespaces/inkscape"
   viewBox="0 0 309.03611 233.0271"
   version="1.1"
   id="svg21"
   sodipodi:docname="tigre.svg"
   width="309.03613"
   height="233.0271"
   style="fill:#ffffff;fill-rule:evenodd;stroke:#000000;stroke-linecap:round;stroke-linejoin:round"
   inkscape:version="0.92.5 (2060ec1f9f, 2020-04-08)">
  <metadata
     id="metadata27">
    <rdf:RDF>
      <cc:Work
         rdf:about="">
        <dc:format>image/svg+xml</dc:format>
        <dc:type
           rdf:resource="http://purl.org/dc/dcmitype/StillImage" />
        <dc:title></dc:title>
      </cc:Work>
    </rdf:RDF>
  </metadata>
  <defs
     id="defs25" />
  <sodipodi:namedview
     pagecolor="#ffffff"
     bordercolor="#666666"
     borderopacity="1"
     objecttolerance="10"
     gridtolerance="10"
     guidetolerance="10"
     inkscape:pageopacity="0"
     inkscape:pageshadow="2"
     inkscape:window-width="1543"
     inkscape:window-height="857"
     id="namedview23"
     showgrid="false"
     inkscape:snap-bbox="false"
     inkscape:bbox-nodes="false"
     inkscape:snap-page="true"
     fit-margin-top="2"
     fit-margin-left="2"
     fit-margin-right="2"
     fit-margin-bottom="2"
     inkscape:zoom="1.3945711"
     inkscape:cx="-25.795941"
     inkscape:cy="40"
     inkscape:window-x="268"
     inkscape:window-y="124"
     inkscape:window-maximized="0"
     inkscape:current-layer="svg21" />
  <use
     xlink:href="#A"
     x="2.0829999"
     y="2.0829999"
     id="use2"
     width="100%"
     height="100%"
     transform="matrix(2.232805,0,0,2.232805,-5.5476225,-281.72935)" />
  <symbol
     id="A"
     overflow="visible"
     style="overflow:visible"
     transform="translate(4.5001107,156.9436)">
    <g
       id="g12"
       style="fill-rule:nonzero;stroke:none">
      <path
         d="m 13.338,3.367 -4.688,5.464 -7.464,7.733 -1.094,9.688 0.865,4.015 3.281,2.194 12.225,-3.298 5.042,-1.133 1.25,9.729 L 15.421,44 12.99,45.173 c 0,0 -8.681,8.556 -3.473,17.146 h 6.598 l 2.615,-4.487 0.896,-4.469 16.271,-10.179 5.302,-5.429 14.15,-1.629 14.15,-1.465 8.681,-3.079 3.817,11.75 3.563,8.5 -1.604,9.792 -0.158,3.069 2.798,2.642 h 3.654 l 5.438,-13.592 -1.806,-7.069 0.292,-11.312 4.875,-11 2.829,-7.771 c 0,0 0.542,-7.187 -2.506,-10.885 C 96.324,2.008 81.994,0.425 81.994,0.425 H 65.911 L 51.005,2.333 40.759,3.348 H 32.963 L 22.886,6.654 19.625,6.342 13.338,3.348 Z"
         id="path4"
         inkscape:connector-curvature="0"
         style="fill:#e27022" />
      <path
         d="m 38.773,41.734 0.652,6.304 1.333,6.25 -0.994,6.51 1.438,3.281 1.84,1.612 h 5.104 l 3.348,-11.979 v -16.85 l -10.292,0.896 z"
         id="path6"
         inkscape:connector-curvature="0"
         style="fill:#d0cfce" />
      <path
         d="m 94.892,38.633 5.073,6.262 7.948,5.84 4.5,7.263 1.496,6.385 5.198,1.167 5.469,-4.787 c 0,0 0.848,-5.667 -2.506,-8.927 l -6.652,-5.181 -5.208,-11.99 -2.083,-17.4 -3.646,-6.423 -2.804,-2.667 h -3.138 l 2.246,12.281 -2.117,7.396 -4.494,8.367 0.719,2.417 z"
         id="path8"
         inkscape:connector-curvature="0"
         style="fill:#e27022" />
      <path
         d="m 40.761,36.861 12.988,-0.283 10,-1.321 9.921,-2.079 4.494,-1.594 1.465,-10.369 c 0,0 -14.206,10.688 -38.87,10.354 l -0.021,5.292 z M 24.886,19.578 22.89,26.422 22.557,29.037 12.186,30.316 5.469,32.129 c 0,0 2.517,-11.263 9.708,-14.865 0,0 7.796,-2.448 9.708,2.292 z m 75.656,24.84 9.671,-9.756 5.208,11.99 c 0,0 8.029,4.958 8.635,8.458 0.606,3.5 1.433,5.758 -0.91,9.583 l -6.25,0.875 -3.84,-3.229 -1.825,-6.863 -1.198,-3.567 -4.667,-3.027 -4.256,-3.692 -0.571,-0.754 z"
         id="path10"
         inkscape:connector-curvature="0"
         style="fill:#d0cfce" />
    </g>
    <g
       id="g18"
       style="fill:none;stroke-width:4.16699982">
      <path
         d="m 15.125,28.386 -5.052,3.317 C 9.2,32.276 8.179,32.58 7.135,32.58 H 5.35 C 3.76,32.579 2.253,31.871 1.237,30.648 0.221,29.425 -0.2,27.813 0.09,26.25 l 1.875,-9.994 6.788,-5.208 c 0,0 2.84,-10.946 9.933,-5.494 8.092,6.219 -3.7,10.883 -3.7,10.883 m 5.867,-8.646 c 0,0 11.604,-5.656 18.933,-4.625 2.958,0.417 5.979,0.167 8.917,-0.39 11.187,-2.12 34.991,-5.511 47.003,1.12 0,0 18.279,5.25 20.39,36.792 0.208,2.817 1.417,5.542 3.567,7.371 2.592,2.204 8.963,3.929 10.525,-4.577 M 40.444,28.027 c 0,0 1.892,11.208 -3.333,14.41 L 18.85,53.867 c 0,0 1.448,12.046 -7.833,7.375 M 24.884,19.575 c 0,0 -4.208,5.531 -1.317,18.179 l -9.196,9.021 m 26.833,-9.021 c 0,0 26.188,-1.917 31.042,-4.196 4.854,-2.279 5.923,-1.979 5.923,-1.979 m 0.813,-9.458 c 0,0 -3.673,10.742 7.229,29.713 l -2.5,10.837 c -0.265,1.15 0.008,2.359 0.743,3.283 0.735,0.924 1.851,1.462 3.032,1.463 h 0.004 c 1.647,0 3.115,-1.041 3.658,-2.596 L 95.69,51.834 c 0,0 -5.527,-10.34 0.131,-20.265 5.658,-9.925 4.142,-15.521 4.142,-15.521"
         id="path14"
         inkscape:connector-curvature="0" />
      <path
         d="m 95.687,39.113 c 0,0 6.573,8.619 12.917,11.744 4.375,2.173 4.05,9.292 4.05,9.292 v 0.36 c 0,1.136 0.464,2.224 1.285,3.01 0.821,0.786 1.927,1.202 3.063,1.153 l 1.563,-0.069 a 4.17,4.17 0 0 0 3.985,-4.162 V 60.233 M 41.204,47.543 c 0,0 1.237,5.5 0,13.25 a 3.48,3.48 0 0 0 3.054,5.119 h 0.833 c 1.575,0 2.954,-1.042 3.333,-2.583 L 50.616,53.746 49.849,37.779 M 45.697,3.369 c 0,0 8.41,6.952 4.938,26.396 m 8.729,6.363 c 0,0 4.792,-13.829 1.364,-24.594 m 6.49,-11.132 c 0,0 4.375,5.208 4.529,16.863 M 79.629,0 c 0,0 5.035,3.721 4.688,12.75 m -49.633,5.546 c 0,0 0.833,-7.135 -3.5,-14.283"
         id="path16"
         inkscape:connector-curvature="0" />
    </g>
  </symbol>
</svg>
