<svg xmlns="http://www.w3.org/2000/svg" xmlns:xlink="http://www.w3.org/1999/xlink" viewBox="0 0 102.167 59.167" fill="#fff" fill-rule="evenodd" stroke="#000" stroke-linecap="round" stroke-linejoin="round"><use xlink:href="#A" x="2.083" y="2.083"/><symbol id="A" overflow="visible"><g fill-rule="nonzero"><use xlink:href="#C" fill="#5c9e31" stroke="#5c9e31" stroke-linejoin="miter" stroke-width="2.083"/><g stroke="none"><use xlink:href="#D" fill="#b1cc33"/><path d="M14.944 44.036L0 49.37s7.929 6.756 16.375 5.194 8.965-9.879 8.965-9.879l-10.417-.625m28.725-4.59l6.379 12.76s10.417 2.083 16.667 0-11.198-16.927-16.015-15.754" fill="#a57939"/></g><path d="M37.413 19.986l-16.552 5.16s0 4.167-2.083 8.333 22.917 2.083 27.083-4.167l-8.448-9.327z" fill="#5c9e31" stroke="#5c9e31" stroke-linejoin="miter" stroke-width="2.083"/></g><g fill="none" stroke-width="4.167"><use xlink:href="#C"/><use xlink:href="#D"/><path d="M6.277 30.284s30.048 18.39 52.083-13.471M18.777 33.48s6.25-9.115-8.333-14.583m10.417 6.25l16.552-5.16L39.61 8.48m5.729 19.792l-7.812-7.292M14.944 44.036L0 49.37s7.929 6.756 16.375 5.194 8.965-9.879 8.965-9.879l-10.417-.625m28.725-4.59l6.379 12.76s10.417 2.083 16.667 0-11.198-16.927-16.015-15.754"/></g></symbol><defs ><path id="C" d="M56.277 33.48s14.583 0 18.75-2.083 7.423 1.433 7.423 1.433c1.171-2.735-1.173-5.6-1.173-5.6 8.333 4.167 12.5 0 12.5 0 6.25 0 6.25-25-10.417-27.083s-16.667 18.75-16.667 18.75l-4.167 2.083s0 4.167-6.25 12.5z"/><path id="D" d="M62.527 18.897S43.777.147 22.944 8.48 4.194 37.647 4.194 37.647s14.583 10.417 33.333 4.167 21.094-11.719 21.094-11.719 3.906-2.865 3.906-11.198"/></defs></svg>