<svg xmlns="http://www.w3.org/2000/svg" xmlns:xlink="http://www.w3.org/1999/xlink" viewBox="0 0 119.125 114.125" fill="#fff" fill-rule="evenodd" stroke="#000" stroke-linecap="round" stroke-linejoin="round"><use xlink:href="#A" x="2.083" y="2.083"/><symbol id="A" overflow="visible"><g stroke="none" fill-rule="nonzero"><path d="M28.133 1.275l3.473 14.931-11.11 11.11-17.36 29.861L5.218 66.9l4.515 2.777 8.333-.348 7.292-6.944 14.235-3.819s2.777 3.125 4.515 6.25 7.64 8.681 7.64 8.681l1.042 12.5-3.819 12.848-4.167 5.902s45.833 19.792 69.098-14.583l-1.042-12.5-3.819-10.417-6.944-10.765-2.083-3.125-.348-10.765-5.902-11.11-10.417-6.25-5.556-9.375-10.765-8.681-13.542-3.125-11.806 2.083-8.681-4.515-4.863-.348z"/><path d="M84.209 23.76l10.85 8.531s11.592 17.121-.679 37.125c-14.687 23.942 0 0 0 0-3.371 7.239-4.821 14.046-3.621 20.254l-11.042-9.202V46.962l4.515-23.202zm-51.604-8.094L1.117.562l10.762 12.75L22.763 25.51l9.842-9.844" fill="#ea5a47"/><path d="M40.598 3.917l22.433.283s19.246 8.471 21.95 24.617l1.431 18.66c-5.487 13.625-6.367 29.431 4.35 43.404 0 0-14.883 2.754-20.612-14.812l-3.3-9.923.679-12.571 2.952-11.756-.59-10.194-4.742-8.983-7.358-5.917-12.067-4.333L40.6 3.923" fill="#92d3f5"/><path d="M100.427 52.083s11.5 13.348 14.579 31.5c.37 2.259.273 4.57-.287 6.79-.9 3.646-1.704 10.412.302 15.381.979 2.417-1.171 4.929-3.725 4.396-7.729-1.604-19.258-7.598-21.369-16.85a3.82 3.82 0 0 1-.088-.667l-.554-11.971c-.027-.596.108-1.187.392-1.708l7.692-14.242c.14-.256.242-.531.308-.812l2.75-11.812" fill="#61b2e4"/></g><path d="M100.427 54.235c3.683 4.919 13.635 13.921 12.594 33.827M46.354 62.781s17.663 14.129 0 39.094M30.313 15.383L0 0l22.76 25.51m29.208 14.323c1.146 17.408-19.421 20.215-24.904 21.531-.69.166-1.32.521-1.821 1.025l-4.631 4.631c-.728.729-1.716 1.138-2.746 1.138H10.55c-2.505-.002-4.729-1.604-5.525-3.979L3.921 60.86c-.537-1.612-.344-3.379.531-4.837l18.304-30.508 9.848-9.848-4.406-14.385S44.454-.177 45.727 12.385c0 0 35.267 5.087 21.985 40.381 0 0-3.385 12.396 4.948 23.302M43.077 4.729s46.319-8.375 41.558 41.583m-1.99-22.552s30.763 13.721 11.367 46.292c0 0-11.198 13.673 1.302 28.342" fill="none" stroke-width="4.167" stroke-miterlimit="10"/><path d="M25.348 35.792a4.16 4.16 0 1 1 8.333 0 4.16 4.16 0 1 1-8.333 0z" stroke="none" fill="#000" fill-rule="nonzero"/></symbol></svg>