<?xml version="1.0" encoding="UTF-8" standalone="no"?>
<svg
   xmlns:dc="http://purl.org/dc/elements/1.1/"
   xmlns:cc="http://creativecommons.org/ns#"
   xmlns:rdf="http://www.w3.org/1999/02/22-rdf-syntax-ns#"
   xmlns:svg="http://www.w3.org/2000/svg"
   xmlns="http://www.w3.org/2000/svg"
   id="svg21"
   version="1.1"
   stroke-linejoin="round"
   stroke-linecap="round"
   stroke="#000"
   fill-rule="evenodd"
   fill="#fff"
   viewBox="0 0 107.167 102.125">
  <metadata
     id="metadata27">
    <rdf:RDF>
      <cc:Work
         rdf:about="">
        <dc:format>image/svg+xml</dc:format>
        <dc:type
           rdf:resource="http://purl.org/dc/dcmitype/StillImage" />
        <dc:title></dc:title>
      </cc:Work>
    </rdf:RDF>
  </metadata>
  <defs
     id="defs25" />
  <symbol
     overflow="visible"
     id="A">
    <g
       id="g8"
       fill-rule="nonzero"
       stroke="none">
      <path
         id="path4"
         fill="#5c9e31"
         d="M.269 80.129l3.646-9.115 5.6-6.121 8.073-3.906 8.983-.26 12.658 1.2L78.3 79.337l20.146 10.556-.521 2.475-27.717 3.625L26.929 98z" />
      <path
         id="path6"
         fill="#b1cc33"
         d="M15.008 76.769c.013 1.142.942 2.061 2.083 2.06h.021l2.358-.029c8.286.197 16.521-1.356 24.167-4.556 17.146-7.277 9.719-54.113 8.66-60.271v-.277A11.62 11.62 0 0 1 63.902 2.092c7.083 0 16.588 5.76 16.588 11.65 0 6.775-13.454 7.292-13.59 7.292-1.15.026-2.061.979-2.035 2.129a2.26 2.26 0 0 0 .046.392c6.404 29.66 2.842 61.885-4.583 65.208-11.702 5.25-33.479 5.925-48.75 4.333-3.871-.402-6.558-1.55-7.985-3.41-1.458-1.908-1.833-4.739-1.167-8.917.01-.067-.013-.125 0-.192" />
    </g>
    <g
       id="g18"
       stroke-width="4.167"
       fill="none">
      <path
         id="path10"
         d="M70.248 93.948l26.023-.381a2.48 2.48 0 0 0 2.379-2.562c-.033-.892-.542-1.696-1.338-2.083l-19.731-7.598m-60.49-4.583l2.346-.029c8.021.212 15.992-1.285 23.388-4.39 16.292-6.917 7.396-58.167 7.396-58.167v-.467c0-3.63 1.442-7.112 4.009-9.678S60.278 0 63.908 0c7.558 0 18.671 6.175 18.671 13.733 0 9.027-15.625 9.375-15.625 9.375 6.115 28.333 3.558 63.375-5.775 67.558-12.071 5.417-33.879 6.167-49.84 4.506C.471 94.044-.806 87.656.344 80.448M38.41 63.871C10.64 51.429.24 76.5.337 80.448" />
      <g
         id="g16"
         stroke-linejoin="miter">
        <path
           id="path12"
           d="M78.102 21.973c0 0 7.902 8.446 15.802 9.535" />
        <path
           id="path14"
           d="M95.046 41.044l-2.179-9.536 10.079-4.631" />
      </g>
    </g>
  </symbol>
  <g
     style="display:inline"
     id="layer1">
    <g
       transform="translate(2.0829999,2.0829999)"
       style="fill:#d0cfce"
       id="use2">
      <g
         style="fill-rule:nonzero;stroke:none"
         id="g841">
        <path
           style="fill:#9b9b9a"
           d="m 0.269,80.129 3.646,-9.115 5.6,-6.121 8.073,-3.906 8.983,-0.26 12.658,1.2 L 78.3,79.337 98.446,89.893 97.925,92.368 70.208,95.993 26.929,98 Z"
           id="path837" />
      </g>
      <g
         style="fill:none;stroke-width:4.16699982"
         id="g851">
        <g
           style="stroke-linejoin:miter"
           id="g849">
          <path
             d="m 78.102,21.973 c 0,0 7.902,8.446 15.802,9.535"
             id="path845" />
          <path
             d="m 95.046,41.044 -2.179,-9.536 10.079,-4.631"
             id="path847" />
        </g>
      </g>
    </g>
  </g>
  <g
     style="display:inline"
     id="layer2">
    <path
       d="M 70.248,93.948 96.271,93.567 A 2.48,2.48 0 0 0 98.65,91.005 C 98.617,90.113 98.108,89.309 97.312,88.922 L 77.581,81.324 m -60.49,-4.583 2.346,-0.029 c 8.021,0.212 15.992,-1.285 23.388,-4.39 16.292,-6.917 7.396,-58.167 7.396,-58.167 v -0.467 c 0,-3.63 1.442,-7.112 4.009,-9.678 C 56.797,1.444 60.278,0 63.908,0 c 7.558,0 18.671,6.175 18.671,13.733 0,9.027 -15.625,9.375 -15.625,9.375 6.115,28.333 3.558,63.375 -5.775,67.558 C 49.108,96.083 27.3,96.833 11.339,95.172 0.471,94.044 -0.806,87.656 0.344,80.448 M 38.41,63.871 C 10.64,51.429 0.24,76.5 0.337,80.448"
       id="path843"
       style="display:inline;fill:none;stroke-width:4.16699982"
       transform="translate(2.0829999,2.0829999)" />
    <path
       style="display:inline;fill:#d0cfce;fill-rule:nonzero;stroke:none"
       d="m 15.008,76.769 c 0.013,1.142 0.942,2.061 2.083,2.06 h 0.021 L 19.47,78.8 c 8.286,0.197 16.521,-1.356 24.167,-4.556 17.146,-7.277 9.719,-54.113 8.66,-60.271 V 13.696 A 11.62,11.62 0 0 1 63.902,2.092 c 7.083,0 16.588,5.76 16.588,11.65 0,6.775 -13.454,7.292 -13.59,7.292 -1.15,0.026 -2.061,0.979 -2.035,2.129 a 2.26,2.26 0 0 0 0.046,0.392 c 6.404,29.66 2.842,61.885 -4.583,65.208 -11.702,5.25 -33.479,5.925 -48.75,4.333 C 7.707,92.694 5.02,91.546 3.593,89.686 2.135,87.778 1.76,84.947 2.426,80.769 c 0.01,-0.067 -0.013,-0.125 0,-0.192"
       id="path839"
       transform="translate(2.0829999,2.0829999)" />
  </g>
  <g
     style="display:inline"
     id="layer3" />
</svg>
