<?xml version="1.0" encoding="UTF-8" standalone="no"?>
<svg
   xmlns:dc="http://purl.org/dc/elements/1.1/"
   xmlns:cc="http://creativecommons.org/ns#"
   xmlns:rdf="http://www.w3.org/1999/02/22-rdf-syntax-ns#"
   xmlns:svg="http://www.w3.org/2000/svg"
   xmlns="http://www.w3.org/2000/svg"
   height="304"
   width="306.64407"
   version="1.1"
   viewBox="0 0 306.64408 304"
   id="emoji">
  <metadata
     id="metadata23">
    <rdf:RDF>
      <cc:Work
         rdf:about="">
        <dc:format>image/svg+xml</dc:format>
        <dc:type
           rdf:resource="http://purl.org/dc/dcmitype/StillImage" />
        <dc:title></dc:title>
      </cc:Work>
    </rdf:RDF>
  </metadata>
  <defs
     id="defs21" />
  <g
     transform="translate(0.34185636,205.82693)"
     id="color" />
  <g
     transform="translate(0.34185636,205.82693)"
     id="hair" />
  <g
     transform="translate(0.34185636,205.82693)"
     id="skin" />
  <g
     transform="translate(0.34185636,205.82693)"
     id="skin-shadow" />
  <g
     transform="translate(0.34185636,205.82693)"
     id="line" />
  <g
     transform="translate(0.34185636,205.82693)"
     style="display:inline"
     id="layer1" />
  <g
     transform="translate(0.34185636,205.82693)"
     style="display:inline"
     id="layer2" />
  <g
     transform="translate(0.34185636,205.82693)"
     style="display:inline"
     id="layer3">
    <g
       transform="matrix(1.7471111,0,0,1.7471111,-26.435282,-159.37041)"
       id="g2410">
      <path
         id="path2416"
         d="m 77.024437,122.12182 c -10.494253,0.0778 -7.97332,-13.33272 -4.527878,-18.15081 -5.313517,-2.77702 -16.266702,7.05951 -17.604546,-4.324813 C 54.99228,94.297075 69.601205,88.162387 59.50372,86.101735 51.179401,87.827581 44.624864,82.643031 36.800155,82.25977 29.084574,82.944541 18.394493,76.759416 21.862968,67.798275 24.488529,59.03973 30.687319,51.980456 34.928633,43.97547 41.602658,37.649371 46.700232,29.870289 52.698848,22.839733 56.142807,17.630304 64.513525,6.1192873 70.318835,14.46003 c 2.396343,6.523898 9.314079,5.016805 14.27167,2.997683 7.572148,-0.675386 15.032273,4.230255 22.526175,1.249926 9.26681,-2.217795 18.91265,-1.511824 28.18545,0.106068 13.77921,0.02585 29.10016,2.837524 38.19817,14.200974 7.78286,9.189802 10.89732,21.410289 10.82393,33.264348 -0.21811,6.96871 4.74253,13.494635 2.08764,20.448585 -2.37867,8.044409 -9.77732,13.052952 -16.62625,17.013646 -9.37581,2.34459 -15.11972,12.46504 -25.60892,10.50453 -8.89205,-0.63276 -17.9515,-0.67999 -26.04738,-4.92431 -8.45776,-3.15438 -16.56968,-0.72323 -22.886058,5.59729 -5.561655,3.74688 -10.386241,9.69854 -18.218825,7.20305 z"
         style="fill:#cecdcc;stroke-width:0.14090437" />
      <path
         id="path5142"
         d="m 185.33008,91.608842 c -2.42462,3.651126 -12.97975,11.169008 -21.05395,14.418688 -7.1924,5.38711 -15.18384,10.31154 -24.86377,7.69795 -9.12485,1.33365 -17.14297,-4.16165 -25.9711,-5.25392 -8.09744,-3.11791 -14.227526,3.38487 -20.340003,7.32304 -3.722641,3.45556 -7.99467,8.21729 -13.681445,6.32595 -4.363285,-2.19111 -5.455934,-4.85255 -3.988188,-8.18628 1.247108,-7.07348 14.033243,-2.09217 9.475722,-10.57742 4.149634,0.80354 9.862307,0.52542 10.313921,-5.562341 6.572363,-6.477436 -4.045086,-12.946966 -1.200623,-19.651866 6.354706,2.036051 8.819146,9.938753 15.739246,11.394179 5.74982,-0.513405 3.97289,-10.477289 10.45781,-11.772999 1.4046,-2.342457 -1.3766,-12.375965 2.66816,-6.252092 4.27174,7.274309 8.37903,-7.60617 14.77734,-3.802121 3.71764,2.061604 5.36542,-9.665511 10.62574,-3.884633 6.64441,-1.951272 13.7165,8.079478 17.90355,5.931562 2.39898,-4.107817 7.83995,0.897882 10.93287,3.081921 3.33673,2.356197 5.47635,5.301691 7.07907,10.002869 1.60272,4.701178 3.55027,5.116388 1.12565,8.767513 z"
         style="fill:#9b9b9a;stroke:none;stroke-width:0.14090437" />
      <path
         id="path2414"
         d="m 60.175261,39.82684 c 6.009187,-8.466527 14.357797,-4.428898 13.70012,1.310832 -0.401161,2.506122 -2.464248,7.095138 -5.547176,9.459618"
         style="fill:none;stroke:#000000;stroke-width:5.76593351;stroke-miterlimit:4;stroke-dasharray:none" />
    </g>
    <path
       id="path2416-6"
       d="M 86.347916,20.792932 C 77.806221,17.386622 70.303209,29.640444 69.134525,14.701429 69.309708,5.3559171 94.833117,-5.3620649 77.191689,-8.9622487 62.648179,-5.947006 51.196673,-15.004989 37.526036,-15.67459 24.04606,-14.478219 5.3692996,-25.284321 11.42911,-40.940434 16.016257,-56.242586 26.846234,-68.57592 34.256281,-82.561522 45.916544,-93.613917 54.82257,-107.20484 65.302822,-119.488 c 6.016977,-9.10145 20.64155,-29.21248 30.784076,-14.64028 4.186672,11.39798 16.272732,8.76492 24.934192,5.23729 13.22938,-1.17997 26.26305,7.39073 39.35573,2.18376 16.19015,-3.87474 33.0425,-2.64132 49.24312,0.18531 24.07381,0.0453 50.84121,4.95747 66.73644,24.81068 13.59752,16.055603 19.03883,37.406152 18.91061,58.11651 -0.38103,12.175117 8.28573,23.576631 3.64734,35.7259541 -4.1558,14.054476 -17.08207,22.8049589 -29.04791,29.7247329 -16.38058,4.096259 -26.41583,21.777811 -44.74162,18.352577 -15.5354,-1.105501 -31.36327,-1.188015 -45.50767,-8.603315 -14.77665,-5.511054 -28.94908,-1.263563 -39.98449,9.77909 -9.71683,6.546215 -18.14592,16.944427 -31.83031,12.584533 C 98.635017,54.03679 93.125101,46.888015 94.714151,35.887782 101.31086,23.365092 106.43611,6.9462211 110.21423,-1.1043237"
       style="display:inline;fill:none;stroke:#000000;stroke-width:10.07372665;stroke-miterlimit:4;stroke-dasharray:none" />
  </g>
  <g
     transform="translate(0.34185636,205.82693)"
     style="display:inline"
     id="layer4" />
</svg>
