<?xml version="1.0" encoding="UTF-8" standalone="no"?>
<svg
   xmlns:dc="http://purl.org/dc/elements/1.1/"
   xmlns:cc="http://creativecommons.org/ns#"
   xmlns:rdf="http://www.w3.org/1999/02/22-rdf-syntax-ns#"
   xmlns:svg="http://www.w3.org/2000/svg"
   xmlns="http://www.w3.org/2000/svg"
   xmlns:sodipodi="http://sodipodi.sourceforge.net/DTD/sodipodi-0.dtd"
   xmlns:inkscape="http://www.inkscape.org/namespaces/inkscape"
   id="emoji"
   viewBox="0 0 304 304"
   version="1.1"
   sodipodi:docname="xenopo.svg"
   inkscape:version="0.92.5 (2060ec1f9f, 2020-04-08)"
   width="304"
   height="304">
  <metadata
     id="metadata23">
    <rdf:RDF>
      <cc:Work
         rdf:about="">
        <dc:format>image/svg+xml</dc:format>
        <dc:type
           rdf:resource="http://purl.org/dc/dcmitype/StillImage" />
        <dc:title></dc:title>
      </cc:Work>
    </rdf:RDF>
  </metadata>
  <defs
     id="defs21" />
  <sodipodi:namedview
     pagecolor="#ffffff"
     bordercolor="#666666"
     borderopacity="1"
     objecttolerance="10"
     gridtolerance="10"
     guidetolerance="10"
     inkscape:pageopacity="0"
     inkscape:pageshadow="2"
     inkscape:window-width="1759"
     inkscape:window-height="976"
     id="namedview19"
     showgrid="false"
     inkscape:snap-global="false"
     inkscape:zoom="1.1588695"
     inkscape:cx="154.47415"
     inkscape:cy="45.426432"
     inkscape:window-x="49"
     inkscape:window-y="45"
     inkscape:window-maximized="0"
     inkscape:current-layer="emoji"
     fit-margin-top="2"
     fit-margin-left="2"
     fit-margin-right="2"
     fit-margin-bottom="2" />
  <g
     id="color"
     transform="matrix(5.2600013,0,0,5.2600013,-23.579435,-49.353807)" />
  <g
     id="hair"
     transform="matrix(5.2600013,0,0,5.2600013,-23.579435,-49.353807)" />
  <g
     id="skin"
     transform="matrix(5.2600013,0,0,5.2600013,-23.579435,-49.353807)" />
  <g
     id="skin-shadow"
     transform="matrix(5.2600013,0,0,5.2600013,-23.579435,-49.353807)" />
  <g
     id="line"
     transform="matrix(5.2600013,0,0,5.2600013,-23.579435,-49.353807)" />
  <g
     id="g4783"
     transform="matrix(5.2600013,0,0,5.2600013,-23.579435,-49.353807)">
    <path
       style="fill:#a37838;stroke-width:0.05313094"
       d="m 51.010005,59.229067 c -2.239375,-1.113647 0.145265,-5.755307 -2.878879,-5.48028 -0.853396,0.516505 -2.672396,2.344805 -1.892695,0.08848 0.0258,-1.143631 3.564076,-2.118105 0.834717,-2.098765 -2.69352,0.117171 3.522802,-1.035006 0.82436,-2.424111 -1.431131,-3.070482 -4.153348,-0.428008 -6.369359,-0.120988 -1.381122,0.511109 -5.786432,-0.553169 -4.435833,1.871305 2.057005,2.585477 -1.950393,3.605934 -3.800039,4.136917 -2.763953,1.439573 -5.80657,1.093074 -8.764139,0.600612 -1.215682,-0.520284 -4.448916,1.736992 -2.393085,-0.516792 -1.193386,-0.598636 -0.294398,-2.26654 0.827224,-0.855828 1.328606,0.651909 1.978124,-0.552295 0.25473,-0.450517 -1.534296,0.05951 -2.07178,-1.513848 -0.163093,-0.738403 2.390794,-0.30297 4.913878,1.355056 7.054606,0.01037 1.820427,-0.777782 2.87295,-2.816683 0.46101,-3.558254 -1.469489,-1.098717 -2.644476,-2.552802 -4.615255,-1.679112 -2.717552,-0.443353 -5.293885,-1.478778 -7.86801,-2.41529 -1.465937,-0.733695 -4.32781,-1.249405 -3.986908,-3.667118 0.822372,-1.6999 2.020943,-3.310555 2.73938,-4.969502 1.173363,0.0394 5.170151,-0.610607 2.378849,-1.826807 -2.16026,-1.16392 -4.746819,-1.06164 -6.87395,0.13907 -1.147466,-0.118701 -2.230001,3.211536 -2.201364,0.776875 1.313985,-2.504356 -3.1505394,1.156274 -3.5436879,-0.825485 -0.6048604,0.125931 2.2304923,-0.856576 2.905826,-1.362008 2.4682499,-1.571393 5.2930129,-2.695165 8.2537189,-1.896911 2.043953,0.06376 5.327098,0.236813 5.859519,2.60527 1.888648,-0.384272 4.447942,-0.264074 5.802044,-1.403436 1.395891,-1.851753 4.477026,-1.333015 5.788193,-2.895303 0.07171,-2.551398 -3.586883,-1.864484 -3.903084,-3.577348 1.020833,-0.108097 3.635391,-0.365082 1.655176,-1.69269 -1.213879,-0.247881 -3.86677,-2.697894 -1.243491,-2.676498 3.074555,0.11485 6.207483,0.716583 9.288594,0.228193 3.03246,-0.07221 6.273759,0.101889 8.577373,2.345469 1.830455,1.228145 5.783952,4.048792 3.07093,6.245938 -2.945081,1.232278 -0.308447,3.525869 1.093826,4.767541 1.927243,-0.622985 4.769096,-2.269642 6.423623,0.223372 1.61283,3.372134 1.692528,7.378893 0.871284,10.988755 -1.207848,2.509446 -4.045056,3.359366 -5.799291,5.248376 -1.41044,1.575845 -1.965822,4.173431 -3.49674,5.384855 -0.231011,-1.027713 0.355923,-3.265248 -0.544052,-0.97552 -0.413077,0.747932 0.27774,1.79755 -0.192028,2.445564 z m 0.951808,-4.157237 c -0.172266,0.0076 -0.0037,0.423025 0,0 z m 0.07838,-0.29222 c 0.01,-0.417604 -0.154263,0.640458 0,0 z M 26.463509,48.005416 c -0.06995,-0.201456 -0.11926,0.20575 0,0 z m -1.487667,-0.318785 c -0.06995,-0.201456 -0.11926,0.20575 0,0 z m 0.23909,-0.05313 c -0.08178,-0.219408 -0.167713,0.231491 0,0 z M 15.062453,40.21422 c -0.01965,-0.218424 -0.223423,0.359128 0,0 z M 27.19738,56.257547 c 0.203217,-0.120463 0.05731,0.118394 0,0 z M 25.49719,34.101948 c 0.203221,-0.120488 0.0573,0.118424 0,0 z"
       id="path4787"
       inkscape:connector-curvature="0" />
  </g>
  <path
     style="fill:none;stroke:#000000;stroke-width:10.52000237;stroke-miterlimit:4;stroke-dasharray:none"
     d="m 241.5938,261.88498 c -11.77912,-5.85778 0.76409,-30.27292 -15.14291,-28.82628 -4.48887,2.71682 -14.05681,12.33368 -9.95558,0.46541 0.13571,-6.0155 18.74704,-11.14124 4.39061,-11.03951 -14.16792,0.61632 18.52995,-5.44413 4.33614,-12.75083 -7.52775,-16.15074 -21.84662,-2.25132 -33.50284,-0.63639 -7.2647,2.68843 -30.43664,-2.90967 -23.33249,9.84306 10.81985,13.59961 -10.25907,18.96722 -19.98821,21.76019 -14.53839,7.57216 -30.54256,5.74957 -46.09938,3.15922 -6.394493,-2.73669 -23.401308,9.13658 -12.587634,-2.71833 -6.277212,-3.14882 -1.548534,-11.922 4.351199,-4.50165 6.988465,3.42904 10.404935,-2.90507 1.33988,-2.36972 -8.070399,0.31302 -10.897565,-7.96284 -0.857869,-3.884 12.575584,-1.59362 25.847004,7.12759 37.107244,0.0546 9.57544,-4.09114 15.11172,-14.81576 2.42491,-18.71642 -7.72951,-5.77926 -13.90995,-13.42775 -24.27625,-8.83213 -14.294328,-2.33209 -27.845844,-7.77843 -41.385744,-12.70448 -7.710831,-3.85924 -22.764287,-6.57188 -20.971142,-19.28905 4.325677,-8.94147 10.630163,-17.41352 14.409143,-26.13958 6.171891,0.20724 27.195001,-3.2118 12.512749,-9.60901 -11.362971,-6.12222 -24.968275,-5.58423 -36.156987,0.73151 -6.035673,-0.62437 -11.72981,16.89268 -11.579179,4.08636 6.911564,-13.17291 -16.571844,6.08201 -18.6398032,-4.34205 -3.1815699,0.6624 11.7323912,-4.50559 15.2846492,-7.16416 12.982999,-8.26553 27.841256,-14.17658 43.414574,-9.97776 10.751195,0.33538 28.020542,1.24564 30.821078,13.70373 9.934292,-2.02128 23.396182,-1.38903 30.518762,-7.38208 7.34239,-9.74022 23.54916,-7.01166 30.4459,-15.2293 0.3772,-13.420363 -18.86701,-9.807193 -20.53022,-18.816853 5.36958,-0.56859 19.12216,-1.92034 8.70622,-8.90356 -6.385,-1.30385 -20.33921,-14.19092 -6.54076,-14.07838 16.17216,0.60411 32.65137,3.76923 48.85802,1.2003 15.95074,-0.37983 32.99998,0.53593 45.11699,12.33717 9.6282,6.46004 30.42359,21.296653 16.1531,32.853643 -15.49113,6.48178 -1.62244,18.54608 5.75352,25.07727 10.1373,-3.2769 25.08545,-11.93832 33.78827,1.17494 8.48349,17.73743 8.9027,38.81298 4.58295,57.80086 -6.35328,13.19969 -21.277,17.67027 -30.50428,27.60647 -21.63431,22.67382 -5.66034,17.79357 -22.26463,36.05679 z M 112.47919,202.84856 c -0.36793,-1.05966 -0.6273,1.08225 0,0 z m -7.82513,-1.67681 c -0.36793,-1.05966 -0.6273,1.08225 0,0 z m 1.25762,-0.27946 c -0.43017,-1.15409 -0.88217,1.21764 0,0 z M 52.50962,161.86686 c -0.103359,-1.14891 -1.175205,1.88901 0,0 z m 63.82974,84.38792 c 1.06892,-0.63363 0.30145,0.62276 0,0 z"
     id="path4787-3"
     inkscape:connector-curvature="0"
     sodipodi:nodetypes="ccccccccccccccccccccccccccccccccccccccccccccccccc" />
  <path
     style="opacity:1;fill:none;fill-opacity:1;stroke:#000000;stroke-width:10.52000237;stroke-linecap:round;stroke-linejoin:round;stroke-miterlimit:4;stroke-dasharray:none;stroke-dashoffset:0"
     d="m 232.30149,214.75887 c 14.5956,1.45672 23.09645,-7.92249 35.74393,-19.29036 m -6.8084,-56.16897 c -8.71621,4.57613 -8.5723,15.55796 -10.77991,23.82926 m -30.63762,39.71544 c 7.70365,-12.69056 9.58165,-27.71278 12.482,-41.9849 m -71.4878,-48.79324 c 15.0004,-2.74787 28.57338,7.17653 39.14808,15.31881 M 158.54424,97.882007 c 14.16799,-5.94123 16.19325,-7.94812 31.77235,-10.77991 m 51.06271,31.772363 c -14.19073,-2.93243 -22.56731,-9.68625 -35.74389,-14.75146"
     id="path4818"
     inkscape:connector-curvature="0"
     sodipodi:nodetypes="cccccccccccc" />
</svg>
