<svg xmlns="http://www.w3.org/2000/svg" xmlns:xlink="http://www.w3.org/1999/xlink" viewBox="0 0 130.167 97.083" fill="#fff" fill-rule="evenodd" stroke="#000" stroke-linecap="round" stroke-linejoin="round"><use xlink:href="#A" x="2.083" y="1.042"/><symbol id="A" overflow="visible"><g stroke="none" fill-rule="nonzero"><path d="M8.893 8.506l3.646 2.952S-3.434 28.125 1.428 39.583l8.681-.348s3.819-7.812 13.194-9.896l2.083 6.944 9.027 8.16 5.556 8.681 7.119 3.473 1.563 15.104-2.431 20.833 5.208 1.563 2.604-1.39 4.34-34.375 7.813.694 19.271-3.646 5.381-7.119 7.119 9.896 3.994 9.723-.694 13.021-2.604 6.771-1.735 4.167 3.125 1.563 3.473-.521 3.473-7.465 4.515-19.271-4.34-9.027 5.556-8.333s4.86-15.625-3.298-24.306-16.667-7.292-16.667-7.292l-16.319 3.646-14.235-.173c-.521 0-10.244-1.91-10.244-1.91s1.215-4.86-3.646-8.506S20.532 0 20.532 0 11.851 1.215 8.899 8.506z"/><path d="M90.839 48.261l-5.381 7.119L88.062 68.4l-9.375 22.223 6.423 2.256c.694 0 10.938-17.014 10.938-17.014s5.035-10.069 1.91-17.708-7.119-9.896-7.119-9.896zM15.187 12.498s7.163-9.244 35.548 8.681l1.215-2.431-3.646-8.506L22.262.173S7.439 1.919 10.283 9.027c.087.217 4.904 3.473 4.904 3.473z" fill="#d0cfce"/></g><g fill="none" stroke-width="4.167"><path d="M25.351 18.378s2.908 10.354-5.235 12.681-10.125 7.796-10.125 7.796-8.125 3.958-9.792-3.958 7.679-17.452 7.679-17.452l5.354-5.354L9.16 8.6s5.994-11.292 17.24-6.754l22.223 9.083s4.325 3.608 3.492 8.727c0 0 16.808 4.363 37.2-1.562 2.788-.833 5.746-.821 8.542-.125 4.938 1.223 11.729 4.417 14.735 12.74 5 13.846-6.283 26.41-6.283 26.41l4.073 9.656-3.142 18.75-3.75 6.442c-.412.763-1.21 1.237-2.077 1.235h-2.187c-1.817 0-2.954-1.967-2.048-3.542l2.848-4.952a26.46 26.46 0 0 0 .537-19.342c-3.167-8.802-9.031-17.833-9.031-17.833s-6.4 15.208-26.483 9.208m-37.74-21.2s1.771 3.05 4.35 5.258c2.496 2.135 4.458 4.825 5.923 7.762 1.698 3.406 4.677 7.229 9.642 7.975l1.279 15.008s-.067 13.213-1.965 19.202c-.383 1.208.494 2.438 1.765 2.438h4.063c1.042 0 1.85-.821 1.86-1.84l.91-19.219 1.521-13.846s-.833-9.192 1.629-12.681m27.385 9.323s-1.958 3.056 2.402 14.063c-1.696 6.992-3.958 14.542-9.308 20.708-.702 1.242.417 2.792 1.862 2.792h2.833c1.619 0 3.125-.896 3.867-2.323l1.673-3.125 5.063-11.3m23.531-53.523s10.354-3.025 6.631 30.367"/><path d="M71.909 21.065s11.802 8.967 4.163 29.8m-11.25 5.896s5.302-13.958.969-26.285m20.538-11.577s7.646 11.654 2.09 21.875m-48.808 9.7s6.017-17.6 0-29.058"/></g></symbol></svg>