<?xml version="1.0" encoding="UTF-8" standalone="no"?>
<!-- Created with Inkscape (http://www.inkscape.org/) -->

<svg
   xmlns:dc="http://purl.org/dc/elements/1.1/"
   xmlns:cc="http://creativecommons.org/ns#"
   xmlns:rdf="http://www.w3.org/1999/02/22-rdf-syntax-ns#"
   xmlns:svg="http://www.w3.org/2000/svg"
   xmlns="http://www.w3.org/2000/svg"
   xmlns:sodipodi="http://sodipodi.sourceforge.net/DTD/sodipodi-0.dtd"
   xmlns:inkscape="http://www.inkscape.org/namespaces/inkscape"
   width="119.0625mm"
   height="77.71241mm"
   viewBox="0 0 119.0625 77.71241"
   version="1.1"
   id="svg827"
   inkscape:version="0.92.5 (2060ec1f9f, 2020-04-08)"
   sodipodi:docname="ia-flag-unish-1.svg">
  <defs
     id="defs821" />
  <sodipodi:namedview
     id="base"
     pagecolor="#ffffff"
     bordercolor="#666666"
     borderopacity="1.0"
     inkscape:pageopacity="0.0"
     inkscape:pageshadow="2"
     inkscape:zoom="1.4"
     inkscape:cx="229.46244"
     inkscape:cy="138.23578"
     inkscape:document-units="mm"
     inkscape:current-layer="layer1"
     showgrid="false"
     fit-margin-top="0"
     fit-margin-left="0"
     fit-margin-right="0"
     fit-margin-bottom="0"
     inkscape:window-width="1429"
     inkscape:window-height="900"
     inkscape:window-x="272"
     inkscape:window-y="40"
     inkscape:window-maximized="0" />
  <metadata
     id="metadata824">
    <rdf:RDF>
      <cc:Work
         rdf:about="">
        <dc:format>image/svg+xml</dc:format>
        <dc:type
           rdf:resource="http://purl.org/dc/dcmitype/StillImage" />
        <dc:title></dc:title>
      </cc:Work>
    </rdf:RDF>
  </metadata>
  <g
     inkscape:label="Taso 1"
     inkscape:groupmode="layer"
     id="layer1"
     transform="translate(-3.9455391,-39.90321)">
    <path
       inkscape:connector-curvature="0"
       id="path1389"
       d="M 3.9455401,78.75941 V 39.90321 H 63.47679 123.00804 v 38.8562 38.85621 H 63.47679 3.9455401 Z"
       style="fill:#ffffff;stroke-width:0.16089526" />
    <path
       inkscape:connector-curvature="0"
       id="path1387"
       d="M 3.9455387,78.75941 V 39.90321 H 63.476789 123.00804 v 38.8562 38.85621 H 63.476789 3.9455387 Z m 63.5930853,23.8841 c 8.666213,-1.2837 16.123743,-7.64511 18.851543,-16.08067 0.97784,-3.02395 1.13746,-4.08362 1.13904,-7.56208 0.002,-3.3809 -0.22423,-4.8904 -1.15065,-7.69336 -1.93953,-5.86822 -6.31091,-10.94533 -11.80127,-13.70653 -8.541117,-4.29547 -18.571071,-3.01985 -25.770975,3.27757 -3.944019,3.44965 -6.533579,7.88778 -7.733359,13.25387 -0.477976,2.13777 -0.517418,7.2793 -0.07191,9.37352 1.413381,6.64386 4.971057,11.98979 10.32815,15.51954 4.87133,3.20969 10.494036,4.46475 16.209428,3.61814 z m -6.589461,-5.39566 c -2.118159,-2.14402 -4.812728,-6.14424 -4.410043,-6.54692 0.313748,-0.31375 4.622951,-0.99647 5.650507,-0.89523 l 0.563134,0.0555 0.04291,4.33344 c 0.02639,2.66486 -0.01759,4.39394 -0.114197,4.49055 -0.10221,0.10221 -0.707509,-0.40002 -1.732308,-1.43733 z m 4.45837,-2.96204 v -4.50507 h 0.805535 c 1.486117,0 5.206639,0.63827 5.514389,0.94602 0.20089,0.20089 -0.93792,2.23111 -2.267121,4.04173 -0.957618,1.30446 -3.572689,4.02238 -3.870165,4.02238 -0.131905,0 -0.182638,-1.2514 -0.182638,-4.50506 z m -9.083787,3.13773 c -1.938901,-0.84641 -3.468057,-1.8239 -5.235892,-3.34696 -1.164041,-1.00287 -1.16331,-1.00605 0.399033,-1.73819 0.762481,-0.35731 1.618608,-0.68735 1.902506,-0.73342 0.482747,-0.0783 0.539599,-0.0356 0.877785,0.66053 0.501063,1.03134 2.135035,3.60217 2.923272,4.59936 0.63288,0.80066 0.787053,1.12369 0.534333,1.11957 -0.06637,-0.001 -0.696835,-0.25348 -1.401037,-0.56089 z m 14.07154,0.42271 c 0,-0.089 0.436391,-0.74097 0.969761,-1.44881 0.97296,-1.29121 2.64187,-3.9913 2.82644,-4.57282 0.13526,-0.42618 0.78438,-0.30497 2.45408,0.45827 0.8904,0.40701 1.3118,0.68729 1.3118,0.8725 0,0.28729 -2.24874,2.16408 -3.62529,3.02564 -0.81414,0.50956 -2.90075,1.5117 -3.57478,1.71686 -0.20851,0.0635 -0.362011,0.0416 -0.362011,-0.0516 z M 48.069299,90.70589 C 47.980289,90.59527 47.617364,90.02777 47.2628,89.44477 45.827206,87.08426 44.750575,83.94612 44.549081,81.53486 l -0.104199,-1.24694 h 3.304272 c 3.687517,0 3.499043,-0.0635 3.500242,1.17965 9.65e-4,0.98455 0.409784,3.33945 0.898643,5.17621 0.675418,2.5377 0.693808,2.28818 -0.196596,2.66743 -0.430728,0.18347 -1.387419,0.61757 -2.12598,0.96468 -1.49883,0.70443 -1.529319,0.7119 -1.756164,0.43 z m 31.094778,-0.0746 c -0.26548,-0.14455 -1.13431,-0.54515 -1.93074,-0.89024 -0.79643,-0.34508 -1.51196,-0.68966 -1.59006,-0.76572 -0.0816,-0.0795 0.0667,-0.91225 0.34902,-1.95921 0.58511,-2.16984 0.81829,-3.44116 0.96846,-5.28017 l 0.11168,-1.36761 3.33858,-0.0435 3.33858,-0.0435 v 0.54532 c 0,2.37784 -1.40845,6.49812 -3.15704,9.2356 -0.58577,0.91704 -0.70328,0.96385 -1.42848,0.56901 z m -24.027004,-2.7411 c -0.52081,-1.00869 -1.581405,-6.50541 -1.397508,-7.24282 l 0.09091,-0.36456 4.461141,0.0428 4.461142,0.0428 0.04356,3.26006 c 0.05129,3.83829 0.318078,3.44616 -2.537437,3.72957 -1.017663,0.101 -2.498253,0.32543 -3.290202,0.49872 -1.742306,0.38124 -1.652909,0.3796 -1.831609,0.0335 z m 15.821344,-0.0489 c -0.707937,-0.1641 -2.011188,-0.37854 -2.896112,-0.47653 -0.884924,-0.098 -1.84572,-0.21348 -2.135103,-0.25662 l -0.52615,-0.0784 0.04346,-3.33067 0.04346,-3.33068 4.464844,-0.0428 4.464841,-0.0428 v 1.0402 c 0,1.19329 -0.47386,3.79889 -1.01145,5.5616 -0.43185,1.41603 -0.4446,1.42101 -2.4478,0.95668 z M 44.540602,77.4495 c -0.187298,-0.48809 0.276067,-3.12105 0.852438,-4.84376 0.929202,-2.77728 2.438356,-5.45491 3.046188,-5.40472 0.173604,0.0143 1.207129,0.41255 2.296722,0.88492 2.275262,0.9864 2.120773,0.62896 1.414088,3.2718 -0.50074,1.87265 -0.899719,4.19289 -0.900642,5.23763 -3.22e-4,0.40264 -0.08753,0.81896 -0.193721,0.92515 -0.136853,0.13685 -1.098786,0.19308 -3.303402,0.19308 -2.735395,0 -3.122546,-0.0318 -3.211671,-0.2641 z m 9.280782,-0.0608 c -0.21895,-0.40911 0.163952,-3.20685 0.745309,-5.44572 0.52782,-2.0327 0.612491,-2.17284 1.242922,-2.05715 0.279034,0.0512 1.267565,0.23472 2.196735,0.40782 0.92917,0.17309 2.232422,0.36084 2.896115,0.41722 0.663693,0.0564 1.371085,0.13636 1.571982,0.17772 l 0.365266,0.0752 -0.04348,3.33469 -0.04348,3.3347 -4.377359,0.0428 c -4.271489,0.0418 -4.38163,0.0348 -4.554018,-0.28729 z m 11.695945,0.22021 c -0.06039,-0.0604 -0.109796,-1.5806 -0.109796,-3.37826 0,-3.26097 8.04e-4,-3.26864 0.362014,-3.34034 0.199108,-0.0395 1.122245,-0.15529 2.051415,-0.25724 0.92917,-0.10196 2.405321,-0.32832 3.280335,-0.50303 0.87502,-0.1747 1.67773,-0.28434 1.78382,-0.24363 0.46522,0.17852 1.59,5.35088 1.50076,6.90134 l -0.0487,0.84545 -4.355046,0.0428 c -2.395277,0.0235 -4.404457,-0.007 -4.464844,-0.067 z m 11.679728,-0.0931 c -0.0889,-0.11244 -0.2083,-0.78367 -0.2653,-1.4916 -0.11624,-1.4436 -0.7494,-4.61932 -1.13481,-5.69179 -0.35741,-0.99453 -0.32738,-1.42355 0.109,-1.55746 0.19911,-0.0611 1.18806,-0.47646 2.19767,-0.92304 l 1.83565,-0.81195 0.38611,0.46974 c 0.21236,0.25835 0.85272,1.41097 1.42302,2.56137 1.16774,2.35556 1.83676,4.63558 1.88843,6.43581 l 0.0323,1.12627 -3.15523,0.0436 c -2.40202,0.0332 -3.1938,-0.005 -3.31687,-0.1609 z m -17.501306,-9.5465 c -2.171995,-0.34105 -3.120863,-0.55688 -3.230895,-0.73491 -0.129617,-0.20973 1.17882,-2.47239 2.313886,-4.00137 1.02212,-1.37683 3.560833,-4.02238 3.85995,-4.02238 0.155111,0 0.190072,0.99529 0.156838,4.46484 l -0.04277,4.46485 -0.804477,0.0282 c -0.442462,0.0155 -1.456102,-0.0741 -2.252533,-0.1992 z m 5.819046,0.14421 c -0.157086,-0.15708 -0.131336,-8.90287 0.02621,-8.90287 0.287341,0 2.151554,1.84634 3.231295,3.20032 1.420821,1.78168 2.910145,4.13687 2.910145,4.60205 0,0.40168 -0.4987,0.54768 -3.298355,0.96566 -1.738251,0.25951 -2.699457,0.30468 -2.869298,0.13484 z M 51.827642,65.80655 c -0.787764,-0.34504 -1.511793,-0.70899 -1.608953,-0.80878 -0.390478,-0.40105 2.847645,-2.8447 5.45468,-4.11638 1.721343,-0.83965 2.172392,-0.9945 2.171798,-0.74559 -1.58e-4,0.0664 -0.42964,0.69375 -0.954403,1.39417 -0.524765,0.70043 -1.302966,1.87872 -1.729337,2.61844 -0.426372,0.73971 -0.900862,1.56039 -1.054422,1.82373 -0.153562,0.26334 -0.406972,0.47496 -0.563133,0.47027 -0.156164,-0.005 -0.928466,-0.29083 -1.71623,-0.63586 z M 73.868237,65.5625 c -0.65978,-1.27652 -1.78806,-3.03983 -2.698,-4.21653 -1.258695,-1.6277 -1.099992,-1.68095 1.39714,-0.46871 1.73917,0.84429 3.72017,2.1902 4.98551,3.38722 0.60895,0.57606 0.62604,0.61791 0.33829,0.82832 -0.39772,0.29082 -2.53983,1.18017 -3.10856,1.29059 -0.40744,0.0791 -0.48537,0.009 -0.91438,-0.82089 z"
       style="fill:#5a91e4;stroke-width:0.16089526" />
  </g>
</svg>
